<svg width="32" height="32" viewBox="0 0 32 32" fill="none" xmlns="http://www.w3.org/2000/svg">
<path d="M32 16C32 18.1012 31.5862 20.1817 30.7821 22.123C29.978 24.0642 28.7995 25.828 27.3137 27.3137C25.828 28.7995 24.0641 29.978 22.1229 30.7821C20.1817 31.5862 18.1012 32 16 32C11.7565 32 7.68685 30.3143 4.68626 27.3137C1.68568 24.3131 0 20.2435 0 16C0 11.7565 1.68568 7.68688 4.68626 4.6863C7.68685 1.68571 11.7565 0 16 0C20.2435 0 24.3132 1.68571 27.3137 4.6863C30.3143 7.68688 32 11.7565 32 16ZM9.11372 14.6897C8.96328 14.9227 8.88324 15.1726 8.87353 15.4395C8.86664 15.6073 8.89931 15.7743 8.96892 15.9271C9.03853 16.0798 9.1431 16.2141 9.2742 16.319C9.4053 16.4239 9.55927 16.4964 9.7236 16.5308C9.88794 16.5652 10.058 16.5604 10.2202 16.5168C12.2293 15.9709 12.1419 13.7143 10.7734 12.6078C9.25205 11.3776 7.00274 11.7052 6.14377 13.5105C3.79982 18.3949 11.1519 21.8526 13.8963 17.4559C17.4049 11.8508 9.67426 6.05642 4.73158 10.242C4.16379 10.7225 4.5542 11.7161 4.3067 12.41C3.95997 15.6352 3.2652 16.319 3.95997 17.5505C4.07656 17.5637 4.1946 17.5528 4.3067 17.5186C4.41879 17.4844 4.5225 17.4276 4.61135 17.3517C4.7002 17.2758 4.77227 17.1826 4.82301 17.0777C4.87376 16.9729 4.90212 16.8588 4.90628 16.7425C4.95723 15.5341 4.65148 14.3403 5.25567 13.2266C7.14102 9.77617 12.091 10.4095 12.5569 14.5805C12.9572 18.1474 7.09737 17.8999 7.91994 14.879C8.0267 14.4811 8.27174 14.219 8.65512 14.0928C9.3782 13.8599 9.53107 14.0589 9.11372 14.6897ZM22.8498 14.9372C22.845 14.6606 22.7795 14.401 22.6533 14.1583C22.5759 14.0084 22.4621 13.8804 22.3222 13.786C22.1822 13.6916 22.0206 13.6339 21.8521 13.618C21.6835 13.602 21.5134 13.6285 21.3571 13.6949C21.2008 13.7613 21.0634 13.8656 20.9572 13.9982C19.8508 15.4031 20.8917 17.1356 22.5514 17.3976C24.2985 17.6743 25.8781 16.2766 25.9872 14.5878C26.1328 12.273 24.0218 10.6424 21.8526 10.7443C16.9536 10.9773 15.9127 17.2666 20.0983 19.5742C26.8899 23.3158 32.9463 13.5614 26.0965 8.96088C25.4704 8.53868 24.5751 8.68427 24.2985 9.44132C24.2402 9.59911 24.2298 9.77082 24.2687 9.93515C24.3075 10.0995 24.3938 10.2492 24.5168 10.3658C25.2812 11.0865 26.1838 11.7634 26.5332 12.7753C27.6979 16.1456 25.2666 18.8972 21.707 18.0018C18.5405 17.2011 19.3995 11.647 22.9591 13.0883C23.1252 13.1566 23.2742 13.2612 23.395 13.3947C23.5159 13.5282 23.6057 13.6871 23.6579 13.8599C23.8277 14.4277 23.7112 14.862 23.3085 15.1629C23.2664 15.1957 23.216 15.216 23.1629 15.2215C23.1098 15.227 23.0563 15.2174 23.0084 15.1938C22.9606 15.1703 22.9203 15.1337 22.8922 15.0883C22.8642 15.0429 22.8495 14.9906 22.8498 14.9372ZM14.8571 25.7616C16.444 27.1399 18.0916 27.101 19.7998 25.6452C19.9891 25.485 20.3045 25.6549 20.7462 26.1547C21.1878 26.6497 21.7215 26.7856 22.3476 26.5624C22.5562 26.4896 22.7382 26.3731 22.8935 26.2129C23.4128 25.6743 23.4541 25.1041 23.0173 24.5023C21.4547 22.3428 19.5912 22.0589 17.4268 23.6506C17.2229 23.8059 17.024 23.7986 16.8299 23.6288C15.3012 22.3233 13.7313 22.3719 12.1201 23.7744C11.8872 23.9782 11.6688 23.9636 11.465 23.7307C11.2417 23.4735 10.9724 23.2794 10.6569 23.1483C10.4372 23.0587 10.198 23.0271 9.9625 23.0566C9.72699 23.0861 9.50303 23.1758 9.31219 23.3169C9.12134 23.458 8.97005 23.6459 8.87282 23.8624C8.77559 24.0789 8.7357 24.3169 8.75704 24.5533C8.81527 25.1793 9.13557 25.6888 9.71792 26.0819C11.3242 27.1787 12.8456 27.0743 14.2821 25.7689C14.4713 25.5942 14.663 25.5918 14.8571 25.7616Z" fill="#FCC145"/>
<path d="M9.11375 14.6899C9.5311 14.059 9.37823 13.8601 8.65515 14.093C8.27177 14.2192 8.02673 14.4812 7.91997 14.8792C7.0974 17.9001 12.9573 18.1476 12.5569 14.5807C12.091 10.4097 7.14105 9.77635 5.2557 13.2268C4.65152 14.3405 4.95726 15.5343 4.90631 16.7427C4.90215 16.8589 4.87379 16.9731 4.82305 17.0779C4.7723 17.1827 4.70023 17.276 4.61138 17.3519C4.52253 17.4277 4.41883 17.4846 4.30673 17.5188C4.19463 17.553 4.07659 17.5639 3.96 17.5507C2.40222 17.3808 2.62157 13.9879 3.50868 12.0038C3.85052 11.2393 4.16382 10.7227 4.73161 10.2422C9.67429 6.0566 17.4049 11.851 13.8963 17.4561C11.152 21.8528 3.79985 18.3951 6.14381 13.5107C7.00277 11.7054 9.25208 11.3778 10.7735 12.608C12.142 13.7145 12.2293 15.9711 10.2202 16.517C10.0581 16.5606 9.88797 16.5653 9.72364 16.531C9.5593 16.4966 9.40533 16.424 9.27423 16.3192C9.14313 16.2143 9.03856 16.08 8.96895 15.9272C8.89934 15.7745 8.86668 15.6074 8.87356 15.4397C8.88327 15.1728 8.96331 14.9228 9.11375 14.6899Z" fill="#020202"/>
<path d="M23.3081 15.1618C23.7108 14.8609 23.8273 14.4266 23.6575 13.8588C23.6053 13.686 23.5155 13.5271 23.3947 13.3937C23.2738 13.2602 23.1248 13.1555 22.9587 13.0872C19.3991 11.6459 18.5401 17.2 21.7066 18.0008C25.2662 18.8961 27.6975 16.1445 26.5328 12.7742C26.1834 11.7624 25.2808 11.0854 24.5165 10.3647C24.3934 10.2482 24.3071 10.0984 24.2683 9.93409C24.2295 9.76976 24.2398 9.59805 24.2981 9.44026C24.5747 8.68321 25.47 8.53762 26.0961 8.95982C32.9459 13.5604 26.8895 23.3147 20.0979 19.5731C15.9123 17.2656 16.9532 10.9762 21.8522 10.7433C24.0214 10.6414 26.1324 12.2719 25.9869 14.5868C25.8777 16.2756 24.2981 17.6732 22.551 17.3966C20.8913 17.1345 19.8504 15.402 20.9568 13.9971C21.063 13.8645 21.2004 13.7602 21.3567 13.6938C21.513 13.6274 21.6832 13.601 21.8517 13.6169C22.0202 13.6328 22.1818 13.6906 22.3218 13.785C22.4617 13.8793 22.5756 14.0073 22.6529 14.1573C22.7791 14.3999 22.8446 14.6596 22.8495 14.9362C22.8491 14.9895 22.8638 15.0419 22.8918 15.0873C22.9199 15.1327 22.9602 15.1692 23.008 15.1928C23.0559 15.2163 23.1094 15.2259 23.1625 15.2205C23.2156 15.215 23.266 15.1947 23.3081 15.1618Z" fill="#020202"/>
<path d="M14.2816 25.772C12.8452 27.0775 11.3238 27.1818 9.71745 26.085C9.1351 25.692 8.81481 25.1824 8.75657 24.5564C8.73524 24.32 8.77513 24.0821 8.87236 23.8655C8.96958 23.649 9.12087 23.4611 9.31172 23.32C9.50257 23.1789 9.72652 23.0893 9.96204 23.0597C10.1976 23.0302 10.4367 23.0618 10.6565 23.1515C10.9719 23.2825 11.2413 23.4766 11.4645 23.7338C11.6683 23.9668 11.8867 23.9813 12.1196 23.7775C13.7308 22.375 15.3007 22.3265 16.8294 23.6319C17.0235 23.8018 17.2225 23.809 17.4263 23.6537C19.5907 22.062 21.4542 22.3459 23.0168 24.5054C23.4536 25.1072 23.4123 25.6774 22.8931 26.2161C22.7378 26.3762 22.5558 26.4927 22.3471 26.5655C21.7211 26.7887 21.1873 26.6528 20.7457 26.1578C20.3041 25.658 19.9886 25.4881 19.7993 25.6483C18.0911 27.1042 16.4436 27.143 14.8567 25.7648C14.6626 25.5949 14.4709 25.5973 14.2816 25.772Z" fill="#020202"/>
</svg>
