<svg width="32" height="32" viewBox="0 0 32 32" fill="none" xmlns="http://www.w3.org/2000/svg">
<path d="M32 16C32 18.1011 31.5862 20.1817 30.7821 22.1229C29.978 24.0641 28.7995 25.828 27.3137 27.3137C25.828 28.7994 24.0641 29.978 22.1229 30.7821C20.1817 31.5861 18.1012 32 16 32C11.7565 32 7.68684 30.3143 4.68626 27.3137C1.68568 24.3131 0 20.2435 0 16C0 11.7565 1.68568 7.68687 4.68626 4.68629C7.68684 1.68571 11.7565 0 16 0C20.2435 0 24.3132 1.68571 27.3137 4.68629C30.3143 7.68687 32 11.7565 32 16ZM10.1547 15.2793C10.1547 14.706 9.9269 14.156 9.52145 13.7506C9.116 13.3452 8.5661 13.1174 7.99271 13.1174C7.41932 13.1174 6.86943 13.3452 6.46398 13.7506C6.05853 14.156 5.83077 14.706 5.83077 15.2793C5.83077 15.8527 6.05853 16.4026 6.46398 16.8081C6.86943 17.2135 7.41932 17.4413 7.99271 17.4413C8.5661 17.4413 9.116 17.2135 9.52145 16.8081C9.9269 16.4026 10.1547 15.8527 10.1547 15.2793ZM26.1692 15.2793C26.1692 14.706 25.9415 14.156 25.536 13.7506C25.1306 13.3452 24.5807 13.1174 24.0073 13.1174C23.4339 13.1174 22.884 13.3452 22.4786 13.7506C22.0731 14.156 21.8453 14.706 21.8453 15.2793C21.8453 15.8527 22.0731 16.4026 22.4786 16.8081C22.884 17.2135 23.4339 17.4413 24.0073 17.4413C24.5807 17.4413 25.1306 17.2135 25.536 16.8081C25.9415 16.4026 26.1692 15.8527 26.1692 15.2793ZM11.5814 22.7989C13.0955 20.5059 16.0946 19.6688 18.5405 21.0082C19.3048 21.4231 19.8726 22.1074 20.4186 22.7698C21.1829 23.687 22.3986 23.4104 22.7989 22.2894C22.8922 22.0299 22.9158 21.7502 22.8673 21.4782C22.8187 21.2062 22.6998 20.9513 22.5223 20.7389C18.8244 16.2985 12.6005 16.3057 9.31756 21.0883C8.79345 21.8502 8.92689 22.4689 9.71792 22.9445L10.0528 23.1483C10.674 23.522 11.1835 23.4055 11.5814 22.7989Z" fill="#FCC145"/>
<path d="M7.99202 17.4411C9.18605 17.4411 10.154 16.4732 10.154 15.2792C10.154 14.0851 9.18605 13.1172 7.99202 13.1172C6.798 13.1172 5.83008 14.0851 5.83008 15.2792C5.83008 16.4732 6.798 17.4411 7.99202 17.4411Z" fill="#020202"/>
<path d="M24.0067 17.4411C25.2007 17.4411 26.1686 16.4732 26.1686 15.2792C26.1686 14.0851 25.2007 13.1172 24.0067 13.1172C22.8127 13.1172 21.8447 14.0851 21.8447 15.2792C21.8447 16.4732 22.8127 17.4411 24.0067 17.4411Z" fill="#020202"/>
<path d="M18.5401 21.0086C16.0943 19.6692 13.0952 20.5063 11.5811 22.7993C11.1831 23.406 10.6736 23.5224 10.0524 23.1488L9.71757 22.9449C8.92655 22.4693 8.7931 21.8506 9.31722 21.0887C12.6002 16.3062 18.8241 16.2989 22.522 20.7393C22.6995 20.9518 22.8184 21.2066 22.8669 21.4787C22.9155 21.7507 22.8919 22.0303 22.7986 22.2898C22.3982 23.4108 21.1826 23.6874 20.4182 22.7702C19.8723 22.1078 19.3045 21.4235 18.5401 21.0086Z" fill="#020202"/>
</svg>
