<svg width="32" height="32" viewBox="0 0 32 32" fill="none" xmlns="http://www.w3.org/2000/svg">
<path d="M32 16C32 18.1012 31.5862 20.1817 30.7821 22.1229C29.978 24.0641 28.7995 25.828 27.3137 27.3137C25.828 28.7994 24.0641 29.978 22.1229 30.7821C20.1817 31.5861 18.1012 32 16 32C11.7565 32 7.68684 30.3143 4.68626 27.3137C1.68568 24.3131 0 20.2435 0 16C0 11.7565 1.68568 7.68688 4.68626 4.6863C7.68684 1.68571 11.7565 0 16 0C18.1012 0 20.1817 0.413857 22.1229 1.21793C24.0641 2.02201 25.828 3.20056 27.3137 4.6863C28.7995 6.17203 29.978 7.93586 30.7821 9.87707C31.5862 11.8183 32 13.8989 32 16ZM10.1547 15.2793C10.1547 14.706 9.9269 14.1561 9.52145 13.7506C9.116 13.3452 8.5661 13.1174 7.99271 13.1174C7.7088 13.1174 7.42765 13.1733 7.16534 13.2819C6.90304 13.3906 6.66474 13.5498 6.46398 13.7506C6.26322 13.9514 6.10398 14.1897 5.99534 14.452C5.88669 14.7143 5.83077 14.9954 5.83077 15.2793C5.83077 15.5633 5.88669 15.8444 5.99534 16.1067C6.10398 16.369 6.26322 16.6073 6.46398 16.8081C6.66474 17.0088 6.90304 17.1681 7.16534 17.2767C7.42765 17.3854 7.7088 17.4413 7.99271 17.4413C8.5661 17.4413 9.116 17.2135 9.52145 16.8081C9.9269 16.4026 10.1547 15.8527 10.1547 15.2793ZM26.1692 15.2793C26.1692 14.706 25.9415 14.1561 25.536 13.7506C25.1306 13.3452 24.5807 13.1174 24.0073 13.1174C23.4339 13.1174 22.884 13.3452 22.4786 13.7506C22.0731 14.1561 21.8453 14.706 21.8453 15.2793C21.8453 15.8527 22.0731 16.4026 22.4786 16.8081C22.884 17.2135 23.4339 17.4413 24.0073 17.4413C24.5807 17.4413 25.1306 17.2135 25.536 16.8081C25.9415 16.4026 26.1692 15.8527 26.1692 15.2793ZM13.9909 26.6278C15.4176 26.0067 16.9051 26.0431 18.4531 26.737C19.0403 26.9991 19.5426 26.885 19.96 26.3949C20.0813 26.2542 20.1711 26.0989 20.2293 25.929C20.5544 24.9779 20.2487 24.3227 19.3121 23.9636C16.842 23.0124 14.5563 23.0634 12.455 24.1165C11.8386 24.4222 11.5717 24.973 11.6542 25.7689C11.7076 26.2784 12.2511 26.5987 13.2848 26.7298C13.5225 26.7631 13.7671 26.7277 13.9909 26.6278Z" fill="#FCC145"/>
<path d="M7.993 17.4411C9.18702 17.4411 10.1549 16.4732 10.1549 15.2792C10.1549 14.0851 9.18702 13.1172 7.993 13.1172C6.79898 13.1172 5.83105 14.0851 5.83105 15.2792C5.83105 16.4732 6.79898 17.4411 7.993 17.4411Z" fill="#020202"/>
<path d="M24.0067 17.4411C25.2007 17.4411 26.1686 16.4732 26.1686 15.2792C26.1686 14.0851 25.2007 13.1172 24.0067 13.1172C22.8127 13.1172 21.8447 14.0851 21.8447 15.2792C21.8447 16.4732 22.8127 17.4411 24.0067 17.4411Z" fill="#020202"/>
<path d="M13.9909 26.6285C13.7671 26.7283 13.5225 26.7637 13.2848 26.7304C12.2512 26.5993 11.7076 26.279 11.6543 25.7695C11.5718 24.9736 11.8387 24.4228 12.455 24.1171C14.5563 23.064 16.842 23.013 19.3121 23.9642C20.2487 24.3233 20.5545 24.9785 20.2293 25.9296C20.1711 26.0995 20.0813 26.2548 19.96 26.3955C19.5426 26.8857 19.0403 26.9997 18.4531 26.7376C16.9051 26.0437 15.4177 26.0073 13.9909 26.6285Z" fill="#020202"/>
</svg>
