<svg width="32" height="32" viewBox="0 0 32 32" fill="none" xmlns="http://www.w3.org/2000/svg">
<path d="M32 16C32 20.2435 30.3143 24.3131 27.3137 27.3137C24.3131 30.3143 20.2435 32 16 32C11.7565 32 7.68688 30.3143 4.6863 27.3137C1.68572 24.3131 0 20.2435 0 16C0 11.7565 1.68572 7.68688 4.6863 4.6863C7.68688 1.68571 11.7565 0 16 0C20.2435 0 24.3131 1.68571 27.3137 4.6863C30.3143 7.68688 32 11.7565 32 16ZM10.1547 15.2793C10.1547 14.706 9.9269 14.1561 9.52146 13.7506C9.11601 13.3452 8.56611 13.1174 7.99272 13.1174C7.70881 13.1174 7.42768 13.1733 7.16538 13.2819C6.90308 13.3906 6.66475 13.5498 6.46399 13.7506C6.26324 13.9514 6.10398 14.1897 5.99533 14.452C5.88668 14.7143 5.83076 14.9954 5.83076 15.2793C5.83076 15.5633 5.88668 15.8444 5.99533 16.1067C6.10398 16.369 6.26324 16.6073 6.46399 16.8081C6.66475 17.0088 6.90308 17.1681 7.16538 17.2767C7.42768 17.3854 7.70881 17.4413 7.99272 17.4413C8.56611 17.4413 9.11601 17.2135 9.52146 16.8081C9.9269 16.4026 10.1547 15.8527 10.1547 15.2793ZM26.1692 15.2793C26.1692 14.706 25.9415 14.1561 25.536 13.7506C25.1306 13.3452 24.5807 13.1174 24.0073 13.1174C23.4339 13.1174 22.884 13.3452 22.4785 13.7506C22.0731 14.1561 21.8453 14.706 21.8453 15.2793C21.8453 15.8527 22.0731 16.4026 22.4785 16.8081C22.884 17.2135 23.4339 17.4413 24.0073 17.4413C24.5807 17.4413 25.1306 17.2135 25.536 16.8081C25.9415 16.4026 26.1692 15.8527 26.1692 15.2793ZM23.2504 21.7415C23.2507 21.5627 23.2158 21.3857 23.1477 21.2204C23.0796 21.0551 22.9796 20.9049 22.8534 20.7783C22.7272 20.6516 22.5773 20.5511 22.4123 20.4824C22.2472 20.4137 22.0703 20.3782 21.8915 20.3779L10.099 20.3573C9.92024 20.357 9.74318 20.3919 9.5779 20.46C9.41263 20.5282 9.26239 20.6282 9.13576 20.7543C9.00914 20.8805 8.90861 21.0304 8.83991 21.1954C8.77121 21.3605 8.73568 21.5374 8.73536 21.7162L8.73508 21.9054C8.73476 22.0842 8.76966 22.2613 8.83778 22.4266C8.90589 22.5918 9.0059 22.7421 9.13208 22.8687C9.25826 22.9953 9.40814 23.0958 9.57317 23.1645C9.73821 23.2332 9.91515 23.2688 10.0939 23.2691L21.8864 23.2896C22.0652 23.2899 22.2423 23.255 22.4075 23.1869C22.5728 23.1188 22.7231 23.0188 22.8497 22.8926C22.9763 22.7664 23.0768 22.6165 23.1455 22.4515C23.2142 22.2865 23.2498 22.1095 23.2501 21.9308L23.2504 21.7415Z" fill="#FCC145"/>
<path d="M7.99302 17.4411C9.18704 17.4411 10.155 16.4732 10.155 15.2792C10.155 14.0851 9.18704 13.1172 7.99302 13.1172C6.799 13.1172 5.83105 14.0851 5.83105 15.2792C5.83105 16.4732 6.799 17.4411 7.99302 17.4411Z" fill="#020202"/>
<path d="M24.0067 17.4411C25.2007 17.4411 26.1687 16.4732 26.1687 15.2792C26.1687 14.0851 25.2007 13.1172 24.0067 13.1172C22.8127 13.1172 21.8447 14.0851 21.8447 15.2792C21.8447 16.4732 22.8127 17.4411 24.0067 17.4411Z" fill="#020202"/>
<path d="M21.8911 20.3774L10.0985 20.3569C9.34675 20.3556 8.73624 20.9639 8.73493 21.7157L8.7346 21.905C8.73329 22.6568 9.34167 23.2673 10.0935 23.2686L21.886 23.2892C22.6378 23.2905 23.2483 22.6821 23.2496 21.9303L23.2499 21.7411C23.2512 20.9893 22.6428 20.3788 21.8911 20.3774Z" fill="#020202"/>
</svg>
