<svg width="33" height="32" viewBox="0 0 33 32" fill="none" xmlns="http://www.w3.org/2000/svg">
<path d="M33 16C33 20.2435 31.2616 24.3131 28.1673 27.3137C25.0729 30.3143 20.8761 32 16.5 32C12.1239 32 7.92708 30.3143 4.83274 27.3137C1.73839 24.3131 0 20.2435 0 16C0 11.7565 1.73839 7.68687 4.83274 4.68629C7.92708 1.68571 12.1239 0 16.5 0C20.8761 0 25.0729 1.68571 28.1673 4.68629C31.2616 7.68687 33 11.7565 33 16ZM10.472 15.2793C10.472 14.706 10.2371 14.1561 9.81901 13.7506C9.40089 13.3452 8.8338 13.1174 8.24249 13.1174C7.65118 13.1174 7.08409 13.3452 6.66597 13.7506C6.24785 14.1561 6.01296 14.706 6.01296 15.2793C6.01296 15.8527 6.24785 16.4026 6.66597 16.8081C7.08409 17.2135 7.65118 17.4413 8.24249 17.4413C8.8338 17.4413 9.40089 17.2135 9.81901 16.8081C10.2371 16.4026 10.472 15.8527 10.472 15.2793ZM26.987 15.2793C26.987 14.706 26.7521 14.1561 26.334 13.7506C25.9159 13.3452 25.3488 13.1174 24.7575 13.1174C24.1662 13.1174 23.5991 13.3452 23.181 13.7506C22.7629 14.1561 22.528 14.706 22.528 15.2793C22.528 15.8527 22.7629 16.4026 23.181 16.8081C23.5991 17.2135 24.1662 17.4413 24.7575 17.4413C25.3488 17.4413 25.9159 17.2135 26.334 16.8081C26.7521 16.4026 26.987 15.8527 26.987 15.2793ZM23.9203 21.3216C23.8605 21.1475 23.766 20.9864 23.6421 20.8477C23.5181 20.709 23.3672 20.5953 23.198 20.5131C23.0287 20.4309 22.8445 20.3819 22.6557 20.3687C22.4669 20.3556 22.2773 20.3787 22.0977 20.4366L12.9517 23.3869C12.7721 23.4448 12.606 23.5365 12.4629 23.6566C12.3199 23.7768 12.2026 23.9231 12.1179 24.0872C12.0331 24.2514 11.9825 24.43 11.969 24.6131C11.9554 24.7962 11.9792 24.9801 12.039 25.1542L12.0674 25.2371C12.1272 25.4112 12.2217 25.5723 12.3457 25.711C12.4696 25.8497 12.6205 25.9634 12.7897 26.0456C12.9589 26.1278 13.1432 26.1768 13.332 26.19C13.5208 26.2031 13.7104 26.18 13.89 26.1221L23.036 23.1718C23.2156 23.1139 23.3817 23.0222 23.5248 22.9021C23.6678 22.7819 23.7851 22.6356 23.8698 22.4714C23.9546 22.3073 24.0052 22.1286 24.0187 21.9456C24.0322 21.7625 24.0085 21.5786 23.9487 21.4045L23.9203 21.3216Z" fill="#FCC145"/>
<path d="M8.24222 17.4411C9.47356 17.4411 10.4717 16.4732 10.4717 15.2792C10.4717 14.0851 9.47356 13.1172 8.24222 13.1172C7.01089 13.1172 6.0127 14.0851 6.0127 15.2792C6.0127 16.4732 7.01089 17.4411 8.24222 17.4411Z" fill="#020202"/>
<path d="M24.7569 17.4411C25.9882 17.4411 26.9864 16.4732 26.9864 15.2792C26.9864 14.0851 25.9882 13.1172 24.7569 13.1172C23.5255 13.1172 22.5273 14.0851 22.5273 15.2792C22.5273 16.4732 23.5255 17.4411 24.7569 17.4411Z" fill="#020202"/>
<path d="M22.0976 20.4367L12.9516 23.387C12.1963 23.6306 11.7877 24.4219 12.0389 25.1543L12.0674 25.2372C12.3186 25.9696 13.1346 26.3659 13.8899 26.1222L23.0359 23.1719C23.7912 22.9283 24.1999 22.137 23.9486 21.4046L23.9202 21.3217C23.6689 20.5893 22.8529 20.193 22.0976 20.4367Z" fill="#020202"/>
</svg>
