<svg width="32" height="32" viewBox="0 0 32 32" fill="none" xmlns="http://www.w3.org/2000/svg">
<path d="M32 16C32 18.1011 31.5862 20.1817 30.7821 22.1229C29.978 24.0641 28.7995 25.828 27.3137 27.3137C25.828 28.7994 24.0641 29.978 22.1229 30.7821C20.1817 31.5861 18.1012 32 16 32C11.7565 32 7.68684 30.3143 4.68626 27.3137C1.68568 24.3131 0 20.2435 0 16C0 11.7565 1.68568 7.68687 4.68626 4.68629C7.68684 1.68571 11.7565 0 16 0C18.1012 0 20.1817 0.413852 22.1229 1.21793C24.0641 2.022 25.828 3.20055 27.3137 4.68629C28.7995 6.17203 29.978 7.93586 30.7821 9.87707C31.5862 11.8183 32 13.8988 32 16ZM7.96361 15.4977C7.49288 15.6967 7.04396 15.9126 6.61691 16.1456C5.94235 16.5144 5.69245 17.1307 5.86716 17.9945C5.89627 18.145 5.96906 18.2736 6.08553 18.3803C6.71155 18.953 7.40064 19.0476 8.15284 18.6642L12.3749 16.5387C12.6104 16.4191 12.808 16.2364 12.9458 16.0111C13.0836 15.7858 13.1562 15.5267 13.1555 15.2625C13.1547 14.9984 13.0807 14.7397 12.9416 14.5152C12.8024 14.2907 12.6038 14.1092 12.3676 13.9909L7.7452 11.7052C7.48377 11.5764 7.18494 11.5444 6.9013 11.615C6.61766 11.6856 6.36745 11.8541 6.19474 12.091C5.86959 12.5423 5.75552 13.064 5.85258 13.6561C5.89141 13.889 6.01516 14.0613 6.22384 14.1729L7.98543 15.0901C8.26204 15.2357 8.25479 15.3715 7.96361 15.4977ZM26.1692 15.2793C26.1692 14.706 25.9415 14.1561 25.536 13.7506C25.1306 13.3452 24.5807 13.1174 24.0073 13.1174C23.4339 13.1174 22.884 13.3452 22.4786 13.7506C22.0731 14.1561 21.8453 14.706 21.8453 15.2793C21.8453 15.8527 22.0731 16.4026 22.4786 16.8081C22.884 17.2135 23.4339 17.4413 24.0073 17.4413C24.5807 17.4413 25.1306 17.2135 25.536 16.8081C25.9415 16.4026 26.1692 15.8527 26.1692 15.2793ZM20.4259 19.3922C18.0746 22.4204 13.8962 22.8499 11.7052 19.5159C11.5276 19.247 11.2647 19.046 10.9594 18.9456C10.6541 18.8451 10.3242 18.8511 10.0236 18.9627C9.86834 19.0209 9.7349 19.1083 9.62328 19.2247C8.95843 19.8993 8.90751 20.6151 9.47044 21.3722C12.899 25.9945 19.1884 25.7762 22.6388 21.2484C22.7609 21.0891 22.8475 20.9055 22.8926 20.71C22.9377 20.5145 22.9403 20.3118 22.9002 20.1157C22.8602 19.9195 22.7784 19.7345 22.6604 19.5732C22.5424 19.4119 22.391 19.2782 22.2166 19.1811L22.0128 19.0719C21.7539 18.9258 21.451 18.8777 21.1597 18.9365C20.8683 18.9954 20.6078 19.1571 20.4259 19.3922Z" fill="#FCC145"/>
<path d="M7.98468 15.0904L6.22309 14.1732C6.01442 14.0615 5.89066 13.8893 5.85184 13.6563C5.75478 13.0643 5.86885 12.5426 6.19399 12.0913C6.36671 11.8544 6.61692 11.6859 6.90056 11.6153C7.1842 11.5447 7.48303 11.5766 7.74445 11.7055L12.3669 13.9912C12.603 14.1094 12.8017 14.2909 12.9408 14.5155C13.0799 14.74 13.154 14.9987 13.1547 15.2628C13.1555 15.5269 13.0829 15.7861 12.9451 16.0114C12.8073 16.2367 12.6096 16.4193 12.3742 16.5389L8.15209 18.6645C7.39989 19.0479 6.71081 18.9533 6.08478 18.3806C5.96831 18.2739 5.89553 18.1453 5.86641 17.9948C5.69171 17.131 5.94161 16.5147 6.61616 16.1459C7.04322 15.9129 7.49214 15.697 7.96287 15.498C8.25404 15.3718 8.2613 15.2359 7.98468 15.0904Z" fill="#020202"/>
<path d="M24.0076 17.4411C25.2017 17.4411 26.1696 16.4732 26.1696 15.2792C26.1696 14.0851 25.2017 13.1172 24.0076 13.1172C22.8136 13.1172 21.8457 14.0851 21.8457 15.2792C21.8457 16.4732 22.8136 17.4411 24.0076 17.4411Z" fill="#020202"/>
<path d="M11.7049 19.5165C13.896 22.8505 18.0744 22.421 20.4256 19.3928C20.6075 19.1577 20.868 18.996 21.1594 18.9372C21.4508 18.8783 21.7536 18.9264 22.0125 19.0725L22.2163 19.1817C22.3908 19.2788 22.5422 19.4126 22.6601 19.5738C22.7781 19.7351 22.8599 19.9201 22.9 20.1163C22.94 20.3124 22.9374 20.5151 22.8923 20.7106C22.8472 20.9061 22.7606 21.0897 22.6385 21.249C19.1881 25.7768 12.8988 25.9952 9.47018 21.3728C8.90724 20.6157 8.95817 19.8999 9.62302 19.2254C9.73463 19.1089 9.86808 19.0215 10.0234 18.9633C10.324 18.8518 10.6538 18.8457 10.9591 18.9462C11.2645 19.0466 11.5273 19.2477 11.7049 19.5165Z" fill="#020202"/>
</svg>
