<svg width="32" height="32" viewBox="0 0 32 32" fill="none" xmlns="http://www.w3.org/2000/svg">
<path d="M32 16C32 20.2435 30.3143 24.3131 27.3137 27.3137C24.3132 30.3143 20.2435 32 16 32C11.7565 32 7.68688 30.3143 4.6863 27.3137C1.68572 24.3131 0 20.2435 0 16C0 11.7565 1.68572 7.68688 4.6863 4.6863C7.68688 1.68571 11.7565 0 16 0C20.2435 0 24.3132 1.68571 27.3137 4.6863C30.3143 7.68688 32 11.7565 32 16ZM10.1547 15.2793C10.1547 14.9954 10.0988 14.7143 9.99013 14.452C9.88148 14.1897 9.72222 13.9514 9.52146 13.7506C9.32071 13.5498 9.08238 13.3906 8.82007 13.2819C8.55777 13.1733 8.27664 13.1174 7.99273 13.1174C7.41934 13.1174 6.86944 13.3452 6.46399 13.7506C6.05855 14.1561 5.83076 14.706 5.83076 15.2793C5.83076 15.8527 6.05855 16.4026 6.46399 16.8081C6.86944 17.2135 7.41934 17.4413 7.99273 17.4413C8.27664 17.4413 8.55777 17.3854 8.82007 17.2767C9.08238 17.1681 9.32071 17.0088 9.52146 16.8081C9.72222 16.6073 9.88148 16.369 9.99013 16.1067C10.0988 15.8444 10.1547 15.5633 10.1547 15.2793ZM26.1692 15.2793C26.1692 14.706 25.9415 14.1561 25.536 13.7506C25.1306 13.3452 24.5807 13.1174 24.0073 13.1174C23.4339 13.1174 22.884 13.3452 22.4786 13.7506C22.0731 14.1561 21.8453 14.706 21.8453 15.2793C21.8453 15.8527 22.0731 16.4026 22.4786 16.8081C22.884 17.2135 23.4339 17.4413 24.0073 17.4413C24.5807 17.4413 25.1306 17.2135 25.536 16.8081C25.9415 16.4026 26.1692 15.8527 26.1692 15.2793ZM20.4695 19.3631C18.1838 22.2966 13.9909 22.9154 11.7998 19.6542C11.3243 18.9457 10.6885 18.7419 9.89263 19.0428C9.75675 19.0913 9.64272 19.1762 9.55052 19.2975C8.95847 20.0692 8.97543 20.8286 9.60146 21.576C13.2047 25.8926 19.4722 25.8344 22.6679 21.1392C23.2551 20.2803 23.0853 19.6178 22.1583 19.152L21.9254 19.0355C21.3479 18.7443 20.8626 18.8535 20.4695 19.3631Z" fill="#FCC145"/>
<path d="M7.99302 17.4416C9.18704 17.4416 10.155 16.4737 10.155 15.2796C10.155 14.0856 9.18704 13.1177 7.99302 13.1177C6.799 13.1177 5.83105 14.0856 5.83105 15.2796C5.83105 16.4737 6.799 17.4416 7.99302 17.4416Z" fill="#020202"/>
<path d="M24.0076 17.4416C25.2017 17.4416 26.1696 16.4737 26.1696 15.2796C26.1696 14.0856 25.2017 13.1177 24.0076 13.1177C22.8136 13.1177 21.8457 14.0856 21.8457 15.2796C21.8457 16.4737 22.8136 17.4416 24.0076 17.4416Z" fill="#020202"/>
<path d="M11.7991 19.6545C13.9902 22.9157 18.1831 22.2969 20.4688 19.3633C20.8619 18.8538 21.3472 18.7446 21.9247 19.0358L22.1577 19.1522C23.0846 19.6181 23.2544 20.2805 22.6672 21.1395C19.4715 25.8347 13.204 25.8929 9.60077 21.5763C8.97474 20.8289 8.95778 20.0694 9.54983 19.2978C9.64203 19.1765 9.75606 19.0916 9.89194 19.0431C10.6878 18.7422 11.3236 18.946 11.7991 19.6545Z" fill="#020202"/>
</svg>
