<svg width="32" height="32" viewBox="0 0 32 32" fill="none" xmlns="http://www.w3.org/2000/svg">
<path d="M32 16C32 20.2435 30.3143 24.3131 27.3137 27.3137C24.3132 30.3143 20.2435 32 16 32C11.7565 32 7.68684 30.3143 4.68626 27.3137C1.68568 24.3131 0 20.2435 0 16C0 11.7565 1.68568 7.68688 4.68626 4.6863C7.68684 1.68571 11.7565 0 16 0C20.2435 0 24.3132 1.68571 27.3137 4.6863C30.3143 7.68688 32 11.7565 32 16ZM8.43674 15.4177C9.121 14.4495 10.2784 14.3767 11.3412 14.8426C11.6064 14.9568 11.9048 14.967 12.1762 14.8711C12.4476 14.7753 12.6721 14.5804 12.8044 14.3258L12.9572 14.02C13.36 13.2436 13.1756 12.6539 12.404 12.2511C10.4095 11.2078 8.48285 11.4577 6.62419 13.0009C6.03214 13.4911 5.7725 14.0734 5.8453 14.748C5.87472 15.0381 5.99233 15.3122 6.18229 15.5334C6.37226 15.7547 6.62546 15.9124 6.90779 15.9853C7.19011 16.0583 7.488 16.043 7.76137 15.9415C8.03473 15.84 8.27044 15.6572 8.43674 15.4177ZM23.192 14.9882C23.4832 15.4735 23.8593 15.784 24.3203 15.9199C24.6245 16.0104 24.9498 15.9999 25.2476 15.8902C25.5454 15.7805 25.7998 15.5773 25.9726 15.3112C26.1454 15.045 26.2274 14.73 26.2065 14.4133C26.1855 14.0966 26.0626 13.7952 25.8562 13.5541C24.2742 11.7149 22.3282 11.2029 20.0182 12.0182C19.7064 12.127 19.4383 12.3339 19.2538 12.6078C18.9287 13.0834 18.8195 13.4935 18.9263 13.838C19.1884 14.7019 19.7586 15.0343 20.6369 14.8353L22.0491 14.5077C22.2651 14.4573 22.4918 14.4765 22.6969 14.5627C22.9021 14.649 23.0753 14.7978 23.192 14.9882ZM18.9336 24.1602C20.1711 23.7234 23.6579 21.4886 22.7115 19.6688C22.6015 19.4584 22.4403 19.2791 22.2427 19.1476C22.0451 19.016 21.8175 18.9364 21.5809 18.9161C21.3444 18.8957 21.1066 18.9354 20.8894 19.0313C20.6722 19.1273 20.4828 19.2764 20.3385 19.465C17.8199 22.7552 14.071 22.566 11.5669 19.4213C11.1155 18.8535 10.5623 18.7249 9.90719 19.0355C9.7616 19.1034 9.63541 19.2005 9.52865 19.3267C8.91718 20.0497 8.91718 20.7704 9.52865 21.4886C12.1395 24.5654 15.2745 25.4559 18.9336 24.1602Z" fill="#FCC145"/>
<path d="M11.3418 14.8424C10.2791 14.3765 9.12165 14.4493 8.43739 15.4175C8.27108 15.657 8.03538 15.8398 7.76201 15.9413C7.48865 16.0428 7.19075 16.0581 6.90843 15.9851C6.6261 15.9122 6.3729 15.7545 6.18294 15.5332C5.99297 15.312 5.87537 15.0379 5.84594 14.7478C5.77315 14.0732 6.03278 13.4909 6.62484 13.0007C8.4835 11.4575 10.4101 11.2076 12.4046 12.2509C13.1763 12.6537 13.3607 13.2434 12.9579 14.0198L12.805 14.3256C12.6727 14.5802 12.4483 14.7751 12.1769 14.8709C11.9054 14.9668 11.6071 14.9566 11.3418 14.8424Z" fill="#020202"/>
<path d="M22.0491 14.5077L20.6369 14.8353C19.7586 15.0343 19.1884 14.7018 18.9263 13.838C18.8195 13.4935 18.9287 13.0834 19.2538 12.6078C19.4382 12.3339 19.7064 12.127 20.0182 12.0182C22.3282 11.2029 24.2742 11.7149 25.8562 13.5541C26.0626 13.7952 26.1855 14.0966 26.2065 14.4133C26.2274 14.73 26.1454 15.0449 25.9726 15.3111C25.7998 15.5773 25.5454 15.7805 25.2476 15.8902C24.9498 15.9999 24.6245 16.0103 24.3203 15.9199C23.8593 15.784 23.4832 15.4734 23.192 14.9882C23.0753 14.7978 22.9021 14.649 22.6969 14.5627C22.4918 14.4765 22.2651 14.4572 22.0491 14.5077Z" fill="#020202"/>
<path d="M18.9339 24.1605C15.2748 25.4562 12.1398 24.5657 9.52891 21.489C8.91745 20.7707 8.91745 20.0501 9.52891 19.327C9.63568 19.2008 9.76187 19.1038 9.90745 19.0358C10.5626 18.7252 11.1158 18.8538 11.5671 19.4216C14.0712 22.5663 17.8201 22.7556 20.3388 19.4653C20.483 19.2768 20.6725 19.1276 20.8897 19.0317C21.1068 18.9357 21.3447 18.8961 21.5812 18.9164C21.8177 18.9367 22.0453 19.0163 22.2429 19.1479C22.4406 19.2795 22.6018 19.4587 22.7118 19.6691C23.6581 21.489 20.1714 23.7237 18.9339 24.1605Z" fill="#020202"/>
</svg>
