<svg width="32" height="32" viewBox="0 0 32 32" fill="none" xmlns="http://www.w3.org/2000/svg">
<path d="M32 16C32 20.2435 30.3143 24.3131 27.3137 27.3137C24.3132 30.3143 20.2435 32 16 32C11.7565 32 7.68688 30.3143 4.6863 27.3137C1.68572 24.3131 0 20.2435 0 16C0 11.7565 1.68572 7.68687 4.6863 4.68629C7.68688 1.68571 11.7565 0 16 0C20.2435 0 24.3132 1.68571 27.3137 4.68629C30.3143 7.68687 32 11.7565 32 16ZM10.1547 15.2793C10.1547 14.9954 10.0988 14.7143 9.99013 14.452C9.88148 14.1897 9.72222 13.9514 9.52146 13.7506C9.32071 13.5498 9.08238 13.3906 8.82008 13.2819C8.55777 13.1733 8.27664 13.1174 7.99273 13.1174C7.41934 13.1174 6.86944 13.3452 6.464 13.7506C6.05855 14.1561 5.83076 14.706 5.83076 15.2793C5.83076 15.8527 6.05855 16.4026 6.464 16.8081C6.86944 17.2135 7.41934 17.4413 7.99273 17.4413C8.27664 17.4413 8.55777 17.3854 8.82008 17.2767C9.08238 17.1681 9.32071 17.0088 9.52146 16.8081C9.72222 16.6073 9.88148 16.369 9.99013 16.1067C10.0988 15.8444 10.1547 15.5633 10.1547 15.2793ZM26.1692 15.2793C26.1692 14.706 25.9415 14.1561 25.536 13.7506C25.1306 13.3452 24.5807 13.1174 24.0073 13.1174C23.4339 13.1174 22.884 13.3452 22.4786 13.7506C22.0731 14.1561 21.8453 14.706 21.8453 15.2793C21.8453 15.8527 22.0731 16.4026 22.4786 16.8081C22.884 17.2135 23.4339 17.4413 24.0073 17.4413C24.5807 17.4413 25.1306 17.2135 25.536 16.8081C25.9415 16.4026 26.1692 15.8527 26.1692 15.2793ZM9.92904 23.2211C13.889 27.8289 21.1465 27.0136 23.1556 21.0664C23.2389 20.8211 23.2625 20.5595 23.2245 20.3032C23.1866 20.047 23.088 19.8035 22.9372 19.5929C22.7864 19.3823 22.5875 19.2106 22.3571 19.0922C22.1267 18.9737 21.8714 18.9119 21.6124 18.9117H10.3876C10.1358 18.9123 9.88731 18.9699 9.66102 19.0802C9.43473 19.1905 9.23656 19.3507 9.08154 19.5485C8.92652 19.7463 8.81871 19.9766 8.76627 20.2219C8.71384 20.4673 8.71815 20.7212 8.77889 20.9645C8.98756 21.8186 9.37096 22.5708 9.92904 23.2211Z" fill="#FCC145"/>
<path d="M7.99302 17.4411C9.18704 17.4411 10.155 16.4732 10.155 15.2792C10.155 14.0851 9.18704 13.1172 7.99302 13.1172C6.799 13.1172 5.83105 14.0851 5.83105 15.2792C5.83105 16.4732 6.799 17.4411 7.99302 17.4411Z" fill="#020202"/>
<path d="M24.0076 17.4411C25.2017 17.4411 26.1696 16.4732 26.1696 15.2792C26.1696 14.0851 25.2017 13.1172 24.0076 13.1172C22.8136 13.1172 21.8457 14.0851 21.8457 15.2792C21.8457 16.4732 22.8136 17.4411 24.0076 17.4411Z" fill="#020202"/>
<path d="M23.1562 21.0658C21.1471 27.013 13.8896 27.8283 9.92961 23.2205C9.37152 22.5702 8.98813 21.818 8.77946 20.9639C8.71872 20.7206 8.7144 20.4667 8.76684 20.2213C8.81927 19.976 8.92709 19.7457 9.08211 19.5479C9.23713 19.3501 9.43529 19.1899 9.66158 19.0796C9.88787 18.9693 10.1364 18.9117 10.3882 18.9111H21.6129C21.872 18.9113 22.1273 18.9731 22.3577 19.0916C22.5881 19.21 22.7869 19.3817 22.9378 19.5923C23.0886 19.8029 23.1871 20.0464 23.2251 20.3026C23.2631 20.5589 23.2395 20.8205 23.1562 21.0658Z" fill="#020202"/>
</svg>
