<svg width="32" height="32" viewBox="0 0 32 32" fill="none" xmlns="http://www.w3.org/2000/svg">
<path d="M32 16C32 20.2435 30.3143 24.3131 27.3137 27.3137C24.3131 30.3143 20.2435 32 16 32C11.7565 32 7.68687 30.3143 4.68629 27.3137C1.68571 24.3131 0 20.2435 0 16C0 11.7565 1.68571 7.68688 4.68629 4.6863C7.68687 1.68571 11.7565 0 16 0C20.2435 0 24.3131 1.68571 27.3137 4.6863C30.3143 7.68688 32 11.7565 32 16ZM12.3894 13.6779C10.4726 12.7316 8.64301 12.9111 6.90082 14.2166C6.31847 14.6533 5.95693 15.2211 5.8162 15.9199C5.6051 16.9827 6.73339 17.5287 7.60692 17.4559C7.86897 17.4316 8.07765 17.3151 8.23294 17.1065C9.01425 16.0582 10.0188 15.7792 11.2466 16.2693C11.5512 16.3912 11.8904 16.3937 12.1958 16.2761C12.5011 16.1586 12.7498 15.9298 12.8917 15.636L12.9864 15.4249C13.3649 14.6436 13.1659 14.0613 12.3894 13.6779ZM23.3085 16.546C23.7792 17.269 24.3761 17.5529 25.0992 17.3976C25.3389 17.3455 25.5599 17.2312 25.7411 17.0655C25.9223 16.8998 26.0576 16.6883 26.1342 16.4511C26.2109 16.214 26.2262 15.959 26.1788 15.7106C26.1314 15.4621 26.0229 15.2285 25.8635 15.0318C24.3979 13.2169 22.4689 12.6903 20.0764 13.4522C19.2272 13.724 18.8438 14.3039 18.9263 15.192C18.9603 15.5948 19.2102 15.9296 19.6761 16.1965C19.9243 16.3415 20.2177 16.3882 20.4986 16.3276L22.0491 16.0146C22.2889 15.9655 22.5378 15.99 22.7626 16.0849C22.9875 16.1798 23.1779 16.3406 23.3085 16.546ZM10.1328 24.9026C11.6664 26.7128 13.5638 27.6203 15.8253 27.6251C19.1107 27.63 21.5008 26.1231 22.9955 23.1046C23.556 21.9763 23.1702 20.5059 21.758 20.4477C18.7492 20.3118 15.2551 20.2827 11.2757 20.3603C8.73764 20.4137 8.09221 21.5444 9.3394 23.7525C9.57234 24.165 9.83682 24.5484 10.1328 24.9026Z" fill="#FCC145"/>
<path d="M12.3891 13.6776C13.1655 14.061 13.3645 14.6433 12.986 15.4246L12.8914 15.6357C12.7495 15.9295 12.5007 16.1583 12.1954 16.2758C11.8901 16.3934 11.5508 16.3909 11.2462 16.269C10.0184 15.7789 9.01389 16.0579 8.23258 17.1062C8.07728 17.3148 7.86861 17.4313 7.60655 17.4556C6.73303 17.5284 5.60473 16.9824 5.81583 15.9196C5.95657 15.2208 6.31811 14.653 6.90046 14.2163C8.64265 12.9108 10.4722 12.7313 12.3891 13.6776Z" fill="#020202"/>
<path d="M22.0488 16.0145L20.4983 16.3275C20.2174 16.3881 19.924 16.3414 19.6758 16.1965C19.2099 15.9296 18.96 15.5947 18.926 15.1919C18.8435 14.3038 19.2269 13.7239 20.0761 13.4522C22.4686 12.6903 24.3976 13.2168 25.8632 15.0318C26.0226 15.2284 26.1311 15.462 26.1785 15.7105C26.2259 15.9589 26.2106 16.2139 26.1339 16.4511C26.0573 16.6883 25.922 16.8998 25.7408 17.0655C25.5596 17.2311 25.3386 17.3455 25.0989 17.3976C24.3758 17.5529 23.7789 17.269 23.3082 16.5459C23.1776 16.3405 22.9872 16.1797 22.7623 16.0848C22.5375 15.9899 22.2886 15.9654 22.0488 16.0145Z" fill="#020202"/>
<path d="M10.1325 24.903C9.83648 24.5488 9.572 24.1654 9.33906 23.7529C8.09186 21.5448 8.7373 20.4141 11.2754 20.3607C15.2547 20.2831 18.7488 20.3122 21.7576 20.4481C23.1698 20.5063 23.5556 21.9767 22.9951 23.105C21.5004 26.1235 19.1104 27.6304 15.825 27.6255C13.5635 27.6206 11.666 26.7132 10.1325 24.903Z" fill="#020202"/>
</svg>
