<svg width="24" height="24" viewBox="0 0 24 24" fill="none" xmlns="http://www.w3.org/2000/svg">
<path d="M8.48621 23C5.94828 23 3.89943 22.0785 2.33966 20.2354C0.779885 18.3664 0 15.6407 0 12.0584C0 8.42419 0.806322 5.67257 2.41897 3.80354C4.03161 1.93451 6.19943 1 8.92241 1C10.4557 1 11.7115 1.27256 12.6897 1.8177C13.6678 2.33687 14.4874 3.12861 15.1483 4.19292H15.4259C15.558 3.75162 15.7299 3.27138 15.9414 2.75221C16.1529 2.20708 16.4172 1.73982 16.7345 1.35044H21.6121C21.3213 2.18112 21.0172 3.3882 20.7 4.97168C20.3828 6.55516 20.2241 8.21652 20.2241 9.95575V15.8743C20.2241 16.7569 20.3828 17.354 20.7 17.6655C21.0437 17.977 21.427 18.1327 21.85 18.1327C22.0351 18.1327 22.2466 18.1068 22.4845 18.0549C22.7224 18.0029 22.8943 17.964 23 17.9381V22.4938C22.8149 22.5976 22.4316 22.7015 21.85 22.8053C21.2948 22.9351 20.7925 23 20.3431 23C19.0213 23 17.9506 22.7664 17.131 22.2991C16.3115 21.8319 15.677 21.0012 15.2276 19.8071H14.831C14.2494 20.6897 13.4563 21.4425 12.4517 22.0655C11.4471 22.6885 10.1253 23 8.48621 23ZM10.2707 18.3664C11.9098 18.3664 13.0466 17.8861 13.681 16.9257C14.342 15.9392 14.6856 14.3817 14.7121 12.2531V12.0195C14.7121 9.94277 14.3816 8.35929 13.7207 7.26902C13.0862 6.17876 11.9098 5.63363 10.1914 5.63363C8.79023 5.63363 7.74598 6.19174 7.05862 7.30796C6.37126 8.39823 6.02759 9.99469 6.02759 12.0973C6.02759 16.2767 7.44196 18.3664 10.2707 18.3664Z" fill="#969FA8"/>
</svg>
