<svg width="24" height="24" viewBox="0 0 24 24" fill="none" xmlns="http://www.w3.org/2000/svg">
<path d="M21 13.0001C21.5523 13.0001 22 12.5524 22 12.0001C22 11.4478 21.5523 11.0001 21 11.0001L5.85136 11C6.73292 10.2871 8.11473 9.46331 10.1754 8.22689L11.9419 7.16701C12.137 7.04998 12.3257 6.93679 12.5084 6.8274L12.5166 6.82251C12.8161 6.64175 12.9985 6.31985 12.9998 5.97005L12.9998 5.96161C12.9998 5.96171 12.9998 5.96155 12.9998 5.95873C12.9955 5.38364 12.5172 5.00397 12 5.00003C11.5741 4.99679 11.2647 5.24095 10.9129 5.45202L9.14645 6.5119L9.0682 6.55885C5.03551 8.97838 3 10.1996 3 11.9999C3 13.8001 5.03551 15.0213 9.0682 17.4409L9.14645 17.4878L10.9129 18.5477C11.2645 18.7586 11.5744 19.0033 12 19C12.5172 18.9961 12.9955 18.6161 12.9998 18.041C12.9998 18.0375 12.9998 18.0381 12.9998 18.0382L12.9998 18.0296C12.9985 17.6799 12.8161 17.358 12.5166 17.1772L12.5084 17.1723C12.3257 17.0629 12.137 16.9497 11.9419 16.8327L10.1754 15.7728C8.11511 14.5366 6.73343 13.7129 5.85185 13L21 13.0001Z" fill="#1D2023"/>
</svg>
