<svg width="16" height="16" viewBox="0 0 16 16" fill="none" xmlns="http://www.w3.org/2000/svg">
<path d="M6.16406 3.75196C6.16406 3.08338 6.97192 2.74855 7.44439 3.22131L9.20307 4.98106C10.6253 6.40416 11.3364 7.11571 11.3364 7.9999C11.3364 8.8841 10.6253 9.59565 9.20306 11.0187L7.44439 12.7785C6.97192 13.2513 6.16406 12.9164 6.16406 12.2478C6.16406 12.0488 6.24308 11.8579 6.38373 11.7172L8.1424 9.95743C8.8835 9.21588 9.33037 8.76423 9.61053 8.39681C9.73984 8.22723 9.79494 8.12363 9.81862 8.0668C9.83652 8.02386 9.83644 8.0087 9.8364 8.00091L9.8364 7.9999L9.8364 7.9989C9.83644 7.99111 9.83652 7.97595 9.81862 7.93301C9.79494 7.87617 9.73984 7.77258 9.61053 7.603C9.33037 7.23558 8.8835 6.78393 8.14241 6.04237L6.38373 4.28262C6.24308 4.14188 6.16406 3.951 6.16406 3.75196Z" fill="#626C77"/>
</svg>
