<svg width="100%" height="100%" viewBox="0 0 24 24" fill="none" xmlns="http://www.w3.org/2000/svg">
<path d="M3.8285 9.9802C4.02694 7.31382 4.13044 6.30338 5.21581 5.21801C6.30118 4.13264 7.31162 4.02914 9.978 3.83069C10.6408 3.78137 11.3215 3.75171 11.9995 3.75171C12.6775 3.75171 13.3583 3.78137 14.021 3.83069C16.6874 4.02914 17.6978 4.13264 18.7832 5.21801C19.8686 6.30338 19.9721 7.31382 20.1705 9.9802C20.2199 10.643 20.2495 11.3237 20.2495 12.0017C20.2495 12.6797 20.2199 13.3605 20.1705 14.0232C19.9721 16.6896 19.8686 17.7 18.7832 18.7854C17.6978 19.8708 16.6874 19.9743 14.021 20.1727C13.3583 20.2221 12.6775 20.2517 11.9995 20.2517C11.3215 20.2517 10.6408 20.2221 9.978 20.1727C7.31162 19.9743 6.30118 19.8708 5.21581 18.7854C4.13044 17.7 4.02694 16.6896 3.8285 14.0232C3.77917 13.3605 3.74951 12.6797 3.74951 12.0017C3.74951 11.3237 3.77917 10.643 3.8285 9.9802Z" fill="white" stroke="#8D969F" stroke-width="1.5"/>
</svg>
