<svg width="24" height="24" viewBox="0 0 24 24" fill="none" xmlns="http://www.w3.org/2000/svg">
<g clip-path="url(#clip0_898_21237)">
<path d="M12.0001 24.0003C18.6276 24.0003 24.0003 18.6276 24.0003 12.0001C24.0003 5.37264 18.6276 0 12.0001 0C5.37264 0 0 5.37264 0 12.0001C0 18.6276 5.37264 24.0003 12.0001 24.0003Z" fill="url(#paint0_linear_898_21237)"/>
<path d="M20.3716 20.3706C24.9956 15.7466 24.9956 8.24953 20.3716 3.62549C15.7475 -0.998538 8.25049 -0.998539 3.62646 3.62549C-0.997574 8.24953 -0.997574 15.7466 3.62646 20.3706C8.25049 24.9946 15.7475 24.9946 20.3716 20.3706Z" fill="url(#paint1_linear_898_21237)"/>
<path d="M19.6732 19.6736C23.9112 15.4356 23.9112 8.5644 19.6732 4.32638C15.4352 0.088351 8.56399 0.08835 4.32597 4.32638C0.0879427 8.5644 0.0879427 15.4356 4.32597 19.6736C8.56399 23.9117 15.4352 23.9116 19.6732 19.6736Z" fill="url(#paint2_linear_898_21237)"/>
<path d="M12.1912 22.2574C17.8563 22.2574 22.4488 17.6649 22.4488 11.9998C22.4488 6.33468 17.8563 1.74219 12.1912 1.74219C6.52608 1.74219 1.93359 6.33468 1.93359 11.9998C1.93359 17.6649 6.52608 22.2574 12.1912 22.2574Z" fill="url(#paint3_linear_898_21237)"/>
<path d="M5.86568 7.80639V11.7788H4.57031V6.25195H6.48615L8.05364 10.3586L9.63082 6.25195H11.4789L11.5073 11.7788H10.0972V7.80639L8.62912 11.6061H7.33376L5.86568 7.80639Z" fill="url(#paint4_linear_898_21237)"/>
<path d="M13.8984 16.5331C13.8984 16.0678 13.9561 15.6712 14.0715 15.3435C14.1868 15.0157 14.3598 14.747 14.5905 14.5373C14.8212 14.3275 15.1128 14.1767 15.4652 14.085C15.824 13.9867 16.2438 13.9375 16.7244 13.9375C17.519 13.9375 18.3659 14.0207 18.8208 14.2829C19.2822 14.5386 19.4348 15.1676 19.5117 15.751H18.13C18.0436 15.6647 17.9572 15.1465 17.6952 15.019C17.4837 14.901 17.1601 14.842 16.7244 14.842C16.1925 14.842 15.8016 14.9436 15.5517 15.1468C15.3082 15.35 15.1864 15.6974 15.1864 16.189V16.8576C15.1864 17.3689 15.3178 17.7228 15.5805 17.9195C15.8433 18.1161 16.2245 18.2144 16.7244 18.2144C17.1729 18.2144 17.5029 18.1521 17.7144 18.0276C17.9259 17.8965 18.07 17.713 18.1469 17.477H19.4253C19.3356 18.0276 19.0697 18.4406 18.6275 18.7158C18.1918 18.9846 17.5574 19.119 16.7244 19.119C16.2566 19.119 15.8465 19.0764 15.494 18.9911C15.1416 18.9059 14.8468 18.7617 14.6097 18.5585C14.3726 18.3553 14.1932 18.0899 14.0715 17.7621C13.9561 17.4344 13.8984 17.0247 13.8984 16.5331Z" fill="url(#paint5_linear_898_21237)"/>
<path d="M13.8984 16.5331C13.8984 16.0678 13.9561 15.6712 14.0715 15.3435C14.1868 15.0157 14.3598 14.747 14.5905 14.5373C14.8212 14.3275 15.1128 14.1767 15.4652 14.085C15.824 13.9867 16.2438 13.9375 16.7244 13.9375C17.519 13.9375 18.3659 14.0207 18.8208 14.2829C19.2822 14.5386 19.4348 15.1676 19.5117 15.751H18.13C18.0436 15.6647 17.9572 15.1465 17.6952 15.019C17.4837 14.901 17.1601 14.842 16.7244 14.842C16.1925 14.842 15.8016 14.9436 15.5517 15.1468C15.3082 15.35 15.1864 15.6974 15.1864 16.189V16.8576C15.1864 17.3689 15.3178 17.7228 15.5805 17.9195C15.8433 18.1161 16.2245 18.2144 16.7244 18.2144C17.1729 18.2144 17.5029 18.1521 17.7144 18.0276C17.9259 17.8965 18.07 17.713 18.1469 17.477H19.4253C19.3356 18.0276 19.0697 18.4406 18.6275 18.7158C18.1918 18.9846 17.5574 19.119 16.7244 19.119C16.2566 19.119 15.8465 19.0764 15.494 18.9911C15.1416 18.9059 14.8468 18.7617 14.6097 18.5585C14.3726 18.3553 14.1932 18.0899 14.0715 17.7621C13.9561 17.4344 13.8984 17.0247 13.8984 16.5331Z" fill="url(#paint6_linear_898_21237)"/>
<path d="M14.2031 7.33194V6.24414L19.4221 6.25298L19.4849 7.33194H17.4274L17.4893 11.7799H16.0542V7.33194H14.2031Z" fill="url(#paint7_linear_898_21237)"/>
<path d="M14.207 16.3754C14.207 15.9053 14.262 15.5048 14.3719 15.1739C14.4818 14.8429 14.6466 14.5715 14.8664 14.3596C15.0862 14.1478 15.364 13.9955 15.6998 13.9029C16.0417 13.8036 16.4416 13.7539 16.8995 13.7539C17.6566 13.7539 18.2518 13.8863 18.6853 14.1511C19.1249 14.4093 19.3813 14.8329 19.4546 15.4221H18.2366C18.1633 15.1573 18.0259 14.9653 17.8245 14.8462C17.623 14.727 17.3147 14.6674 16.8995 14.6674C16.3928 14.6674 16.0203 14.77 15.7822 14.9753C15.5502 15.1805 15.4342 15.5313 15.4342 16.0278V16.703C15.4342 17.2194 15.5594 17.5769 15.8097 17.7754C16.06 17.974 16.4233 18.0733 16.8995 18.0733C17.3269 18.0733 17.6413 18.0105 17.8428 17.8847C18.0443 17.7523 18.1816 17.5669 18.2549 17.3286H19.4729C19.3874 17.8847 19.1341 18.3017 18.7128 18.5798C18.2976 18.8512 17.6932 18.9869 16.8995 18.9869C16.4538 18.9869 16.0631 18.9438 15.7273 18.8578C15.3915 18.7717 15.1106 18.6261 14.8847 18.4209C14.6588 18.2157 14.4879 17.9476 14.3719 17.6166C14.262 17.2856 14.207 16.8718 14.207 16.3754Z" fill="url(#paint8_linear_898_21237)"/>
<g filter="url(#filter0_d_898_21237)">
<path d="M5.73014 7.05996V11.313H4.57422V6.08008H6.49752L8.07114 9.96832L9.65446 6.08008H11.5098V11.313H10.2373V7.08081L8.6151 11.0629H7.35233L5.73014 7.05996Z" fill="url(#paint9_linear_898_21237)"/>
</g>
<path d="M14.207 7.10165V6.08008H19.4729V7.10165H17.4838V11.313H16.2058V7.10165H14.207Z" fill="url(#paint10_linear_898_21237)"/>
</g>
<defs>
<filter id="filter0_d_898_21237" x="4.57422" y="6.08008" width="6.93555" height="5.23242" filterUnits="userSpaceOnUse" color-interpolation-filters="sRGB">
<feFlood flood-opacity="0" result="BackgroundImageFix"/>
<feColorMatrix in="SourceAlpha" type="matrix" values="0 0 0 0 0 0 0 0 0 0 0 0 0 0 0 0 0 0 127 0" result="hardAlpha"/>
<feOffset/>
<feComposite in2="hardAlpha" operator="out"/>
<feColorMatrix type="matrix" values="0 0 0 0 0.713726 0 0 0 0 0.490196 0 0 0 0 0.12549 0 0 0 1 0"/>
<feBlend mode="normal" in2="BackgroundImageFix" result="effect1_dropShadow_898_21237"/>
<feBlend mode="normal" in="SourceGraphic" in2="effect1_dropShadow_898_21237" result="shape"/>
</filter>
<linearGradient id="paint0_linear_898_21237" x1="4.50721" y1="4.50721" x2="22.168" y2="22.168" gradientUnits="userSpaceOnUse">
<stop stop-color="#DB9326"/>
<stop offset="0.04" stop-color="#E8B743"/>
<stop offset="0.08" stop-color="#F2D35A"/>
<stop offset="0.12" stop-color="#F9E76B"/>
<stop offset="0.16" stop-color="#FDF374"/>
<stop offset="0.2" stop-color="#FFF778"/>
<stop offset="0.28" stop-color="#E9C24A"/>
<stop offset="0.34" stop-color="#D99A26"/>
<stop offset="0.36" stop-color="#CA8E23"/>
<stop offset="0.4" stop-color="#B67D20"/>
<stop offset="0.43" stop-color="#AA741E"/>
<stop offset="0.47" stop-color="#A7711E"/>
<stop offset="0.51" stop-color="#AB7622"/>
<stop offset="0.56" stop-color="#B8852E"/>
<stop offset="0.61" stop-color="#CD9E42"/>
<stop offset="0.66" stop-color="#EAC05E"/>
<stop offset="0.68" stop-color="#F6CE69"/>
<stop offset="0.72" stop-color="#F3C862"/>
<stop offset="0.78" stop-color="#EABA4F"/>
<stop offset="0.85" stop-color="#DDA230"/>
<stop offset="0.87" stop-color="#D99A26"/>
<stop offset="1" stop-color="#F6CE69"/>
</linearGradient>
<linearGradient id="paint1_linear_898_21237" x1="25.9841" y1="-1.98712" x2="-15.3927" y2="39.3894" gradientUnits="userSpaceOnUse">
<stop stop-color="#DB9326"/>
<stop offset="0.04" stop-color="#E8B743"/>
<stop offset="0.08" stop-color="#F2D35A"/>
<stop offset="0.12" stop-color="#F9E76B"/>
<stop offset="0.16" stop-color="#FDF374"/>
<stop offset="0.2" stop-color="#FFF778"/>
<stop offset="0.28" stop-color="#E9C24A"/>
<stop offset="0.34" stop-color="#D99A26"/>
<stop offset="0.36" stop-color="#CA8E23"/>
<stop offset="0.4" stop-color="#B67D20"/>
<stop offset="0.43" stop-color="#AA741E"/>
<stop offset="0.47" stop-color="#A7711E"/>
<stop offset="0.51" stop-color="#AB7622"/>
<stop offset="0.56" stop-color="#B8852E"/>
<stop offset="0.61" stop-color="#CD9E42"/>
<stop offset="0.66" stop-color="#EAC05E"/>
<stop offset="0.68" stop-color="#F6CE69"/>
<stop offset="0.72" stop-color="#F3C862"/>
<stop offset="0.78" stop-color="#EABA4F"/>
<stop offset="0.85" stop-color="#DDA230"/>
<stop offset="0.87" stop-color="#D99A26"/>
<stop offset="1" stop-color="#F6CE69"/>
</linearGradient>
<linearGradient id="paint2_linear_898_21237" x1="-9.31032" y1="33.3095" x2="46.3552" y2="-22.356" gradientUnits="userSpaceOnUse">
<stop stop-color="#DB9326"/>
<stop offset="0.04" stop-color="#E8B743"/>
<stop offset="0.08" stop-color="#F2D35A"/>
<stop offset="0.12" stop-color="#F9E76B"/>
<stop offset="0.16" stop-color="#FDF374"/>
<stop offset="0.2" stop-color="#FFF778"/>
<stop offset="0.28" stop-color="#E9C24A"/>
<stop offset="0.34" stop-color="#D99A26"/>
<stop offset="0.36" stop-color="#CA8E23"/>
<stop offset="0.4" stop-color="#B67D20"/>
<stop offset="0.43" stop-color="#AA741E"/>
<stop offset="0.47" stop-color="#A7711E"/>
<stop offset="0.51" stop-color="#AB7622"/>
<stop offset="0.56" stop-color="#B8852E"/>
<stop offset="0.61" stop-color="#CD9E42"/>
<stop offset="0.66" stop-color="#EAC05E"/>
<stop offset="0.68" stop-color="#F6CE69"/>
<stop offset="0.72" stop-color="#F3C862"/>
<stop offset="0.78" stop-color="#EABA4F"/>
<stop offset="0.85" stop-color="#DDA230"/>
<stop offset="0.87" stop-color="#D99A26"/>
<stop offset="1" stop-color="#F6CE69"/>
</linearGradient>
<linearGradient id="paint3_linear_898_21237" x1="-6.47531" y1="30.6663" x2="18.5754" y2="5.61564" gradientUnits="userSpaceOnUse">
<stop stop-color="#DB9326"/>
<stop offset="0.04" stop-color="#E8B743"/>
<stop offset="0.08" stop-color="#F2D35A"/>
<stop offset="0.12" stop-color="#F9E76B"/>
<stop offset="0.16" stop-color="#FDF374"/>
<stop offset="0.2" stop-color="#FFF778"/>
<stop offset="0.28" stop-color="#E9C24A"/>
<stop offset="0.34" stop-color="#D99A26"/>
<stop offset="0.36" stop-color="#CA8E23"/>
<stop offset="0.4" stop-color="#B67D20"/>
<stop offset="0.43" stop-color="#AA741E"/>
<stop offset="0.47" stop-color="#A7711E"/>
<stop offset="0.51" stop-color="#AB7622"/>
<stop offset="0.56" stop-color="#B8852E"/>
<stop offset="0.61" stop-color="#CD9E42"/>
<stop offset="0.66" stop-color="#EAC05E"/>
<stop offset="0.68" stop-color="#F6CE69"/>
<stop offset="0.72" stop-color="#F3C862"/>
<stop offset="0.78" stop-color="#EABA4F"/>
<stop offset="0.85" stop-color="#DDA230"/>
<stop offset="0.87" stop-color="#D99A26"/>
<stop offset="1" stop-color="#F6CE69"/>
</linearGradient>
<linearGradient id="paint4_linear_898_21237" x1="8.71548" y1="5.47473" x2="5.26117" y2="14.0241" gradientUnits="userSpaceOnUse">
<stop stop-color="#FFE9C6"/>
<stop offset="1" stop-color="#50370E"/>
</linearGradient>
<linearGradient id="paint5_linear_898_21237" x1="16.6578" y1="19.2072" x2="16.6578" y2="14.0277" gradientUnits="userSpaceOnUse">
<stop stop-color="#9E6100"/>
<stop offset="0.49" stop-color="#642701"/>
<stop offset="0.65" stop-color="#682A01"/>
<stop offset="0.81" stop-color="#743401"/>
<stop offset="0.98" stop-color="#894401"/>
<stop offset="1" stop-color="#8C4601"/>
</linearGradient>
<linearGradient id="paint6_linear_898_21237" x1="19.1663" y1="14.1102" x2="16.6619" y2="19.119" gradientUnits="userSpaceOnUse">
<stop stop-color="#FFE9C6"/>
<stop offset="1" stop-color="#50370E"/>
</linearGradient>
<linearGradient id="paint7_linear_898_21237" x1="12.1681" y1="5.73484" x2="22.6174" y2="11.9526" gradientUnits="userSpaceOnUse">
<stop stop-color="#FFE9C6"/>
<stop offset="1" stop-color="#50370E"/>
</linearGradient>
<linearGradient id="paint8_linear_898_21237" x1="20.0635" y1="13.2763" x2="14.0658" y2="18.466" gradientUnits="userSpaceOnUse">
<stop stop-color="#FFE4A5"/>
<stop offset="1" stop-color="white"/>
</linearGradient>
<linearGradient id="paint9_linear_898_21237" x1="12.2876" y1="5.60247" x2="6.27843" y2="12.4508" gradientUnits="userSpaceOnUse">
<stop stop-color="#FFE4A5"/>
<stop offset="1" stop-color="white"/>
</linearGradient>
<linearGradient id="paint10_linear_898_21237" x1="20.0635" y1="5.60247" x2="14.0658" y2="10.7922" gradientUnits="userSpaceOnUse">
<stop stop-color="#FFE4A5"/>
<stop offset="1" stop-color="white"/>
</linearGradient>
<clipPath id="clip0_898_21237">
<rect width="24" height="24" fill="white"/>
</clipPath>
</defs>
</svg>
