<svg width="24" height="24" viewBox="0 0 24 24" fill="none" xmlns="http://www.w3.org/2000/svg">
<path fill-rule="evenodd" clip-rule="evenodd" d="M14.0001 5.5C14.4092 5.5 14.8253 5.51792 15.2365 5.54852C16.1726 5.61819 16.621 5.65876 16.9529 5.74506C17.1683 5.8011 17.2865 5.86282 17.4619 6.03819C17.6373 6.21357 17.699 6.33181 17.755 6.54725C17.8414 6.87908 17.8819 7.3275 17.9516 8.26365C17.9822 8.67476 18.0001 9.09096 18.0001 9.5C18.0001 9.90904 17.9822 10.3252 17.9516 10.7363C17.8819 11.6725 17.8414 12.1209 17.755 12.4527C17.699 12.6682 17.6373 12.7864 17.4619 12.9618C17.2865 13.1372 17.1683 13.1989 16.9529 13.2549C16.7218 13.315 16.4343 13.3529 15.9649 13.394C15.9872 13.7582 16.0001 14.1297 16.0001 14.5012C16.0001 14.8023 15.9916 15.1033 15.9765 15.4005C17.3382 15.2889 18.1059 15.1462 18.8761 14.376C19.7514 13.5008 19.8163 12.6288 19.9461 10.8848C19.9797 10.4327 20.0001 9.96635 20.0001 9.5C20.0001 9.03365 19.9797 8.5673 19.9461 8.11521C19.8163 6.37122 19.7514 5.49923 18.8761 4.62398C18.0009 3.74873 17.1289 3.68383 15.3849 3.55404C14.9328 3.52039 14.4665 3.5 14.0001 3.5C13.5338 3.5 13.0674 3.52039 12.6153 3.55404C10.8713 3.68383 9.99934 3.74873 9.12409 4.62398C8.24884 5.49923 8.18394 6.37122 8.05415 8.11522C8.04222 8.27546 8.03196 8.43749 8.02368 8.60068C6.66195 8.71229 5.89423 8.85495 5.12398 9.6252C4.24873 10.5004 4.18383 11.3724 4.05404 13.1164C4.02039 13.5685 4 14.0349 4 14.5012C4 14.9676 4.02039 15.4339 4.05404 15.886C4.18383 17.63 4.24873 18.502 5.12398 19.3772C5.99923 20.2525 6.87122 20.3174 8.61521 20.4472C9.0673 20.4808 9.53365 20.5012 10 20.5012C10.4663 20.5012 10.9327 20.4808 11.3848 20.4472C13.1288 20.3174 14.0008 20.2525 14.876 19.3772C15.7513 18.502 15.8162 17.63 15.946 15.886C15.9796 15.4339 16.0001 14.9676 16.0001 14.5012C16.0001 14.0349 15.9796 13.5685 15.946 13.1164C15.8162 11.3724 15.7513 10.5004 14.876 9.6252C14.0008 8.74995 13.1288 8.68505 11.3848 8.55526C10.9432 8.52239 10.488 8.50217 10.0324 8.50125C10.0373 8.42192 10.0427 8.3427 10.0486 8.26365C10.1183 7.3275 10.1589 6.87908 10.2452 6.54725C10.3012 6.33181 10.3629 6.21357 10.5383 6.03819C10.7137 5.86282 10.8319 5.8011 11.0474 5.74506C11.3792 5.65876 11.8276 5.61819 12.7638 5.54852C13.1749 5.51792 13.5911 5.5 14.0001 5.5Z" fill="#8D969F"/>
</svg>
