<svg width="20" height="20" viewBox="0 0 20 20" fill="none" xmlns="http://www.w3.org/2000/svg">
<g clip-path="url(#clip0_43_6670)">
<path d="M12 11.1C12.4971 11.1 12.9 11.5029 12.9 12C12.9 12.4971 12.4971 12.9 12 12.9C11.5029 12.9 11.1 12.4971 11.1 12C11.1 11.5029 11.5029 11.1 12 11.1Z" fill="#1D2023"/>
<path fill-rule="evenodd" clip-rule="evenodd" d="M6.49994 4.32109C5.97486 4.46409 5.5498 4.6981 5.12398 5.12393C4.24873 5.99918 4.18383 6.87117 4.05404 8.61517C4.02039 9.06725 4 9.5336 4 9.99995C4 10.4663 4.02039 10.9326 4.05404 11.3847C4.18383 13.1287 4.24873 14.0007 5.12398 14.876C5.99923 15.7512 6.87122 15.8161 8.61522 15.9459C9.0673 15.9796 9.53365 16 10 16C10.4663 16 10.9327 15.9796 11.3848 15.9459C13.1288 15.8161 14.0008 15.7512 14.876 14.876C15.7513 14.0007 15.8162 13.1287 15.946 11.3847C15.9796 10.9326 16 10.4663 16 9.99995C16 9.5336 15.9796 9.06725 15.946 8.61517C15.8162 6.87117 15.7513 5.99918 14.876 5.12393C14.4502 4.6981 14.0251 4.46408 13.5 4.32108V3.75049C13.5 3.33627 13.1642 3.00049 12.75 3.00049C12.3358 3.00049 12 3.33627 12 3.75049V4.10136C11.8075 4.08544 11.6029 4.07022 11.3848 4.05399C10.9327 4.02034 10.4663 3.99995 10 3.99995C9.53365 3.99995 9.0673 4.02034 8.61522 4.05399C8.39705 4.07022 8.19253 4.08544 7.99994 4.10136V3.75485C7.99994 3.34063 7.66415 3.00485 7.24994 3.00485C6.83573 3.00485 6.49994 3.34063 6.49994 3.75485V4.32109ZM12.75 6.998C12.3358 6.998 12 6.66221 12 6.248V5.60862C11.7889 5.58947 11.5486 5.57033 11.2735 5.54985C10.8521 5.51849 10.4234 5.49995 10 5.49995C9.57663 5.49995 9.1479 5.51849 8.72655 5.54985C8.45134 5.57033 8.21104 5.58948 7.99994 5.60862V6.25825C7.99994 6.67246 7.66415 7.00825 7.24994 7.00825C6.83573 7.00825 6.49994 6.67246 6.49994 6.25825V5.92727C6.38595 5.99578 6.28978 6.07945 6.18464 6.18459C5.82674 6.54249 5.71765 6.79641 5.60835 8.00337H14.3916C14.2823 6.79641 14.1733 6.54249 13.8154 6.18459C13.7102 6.07944 13.614 5.99577 13.5 5.92726V6.248C13.5 6.66221 13.1642 6.998 12.75 6.998ZM5.50811 9.50337C5.50281 9.66921 5.5 9.83499 5.5 9.99995C5.5 10.4233 5.51854 10.8521 5.5499 11.2734C5.6872 13.1182 5.7644 13.3951 6.18464 13.8153C6.60488 14.2356 6.88177 14.3128 8.72654 14.4501C9.1479 14.4814 9.57663 14.5 10 14.5C10.4234 14.5 10.8521 14.4814 11.2735 14.4501C13.1182 14.3128 13.3951 14.2356 13.8154 13.8153C14.2356 13.3951 14.3128 13.1182 14.4501 11.2734C14.4815 10.8521 14.5 10.4233 14.5 9.99995C14.5 9.83499 14.4972 9.66921 14.4919 9.50337H5.50811Z" fill="#1D2023"/>
</g>
<defs>
<clipPath id="clip0_43_6670">
<rect width="16" height="16" fill="white" transform="translate(2 2)"/>
</clipPath>
</defs>
</svg>
