<svg width="24" height="24" viewBox="0 0 24 24" fill="none" xmlns="http://www.w3.org/2000/svg">
<path fill-rule="evenodd" clip-rule="evenodd" d="M20 5H16C16 4.76953 15.9851 4.54404 15.9603 4.32869C15.8796 3.62545 15.8393 3.27383 15.3616 2.78438C14.8838 2.29493 14.472 2.23751 13.6484 2.12269C13.1421 2.05211 12.5739 2 12 2C11.4261 2 10.8579 2.05211 10.3516 2.12269C9.52797 2.23751 9.11615 2.29493 8.63843 2.78438C8.16071 3.27383 8.12036 3.62545 8.03965 4.32869C8.01494 4.54404 8 4.76953 8 5H4C3.44772 5 3 5.44772 3 6C3 6.55228 3.44772 7 4 7H4.25546C4.22453 7.29064 4.19733 7.60398 4.16763 7.94624C4.06759 9.09891 4 10.451 4 12.0003C4 13.5503 4.06764 14.9027 4.16774 16.0556C4.3435 18.0799 4.43138 19.0921 5.72517 20.3815C7.01895 21.6708 7.98923 21.7517 9.92979 21.9135C10.5788 21.9676 11.2729 22.0007 12 22.0007C12.7272 22.0007 13.4213 21.9676 14.0704 21.9135C16.0109 21.7517 16.9811 21.6708 18.2749 20.3815C19.5687 19.0921 19.6565 18.08 19.8323 16.0557C19.9324 14.9028 20.0001 13.5503 20.0001 12.0003C20.0001 10.4509 19.9325 9.09866 19.8324 7.94594C19.8027 7.6038 19.7755 7.29056 19.7446 7H20C20.5523 7 21 6.55228 21 6C21 5.44772 20.5523 5 20 5ZM10.6278 4.10354C11.0693 4.04199 11.542 4 12 4C12.458 4 12.9307 4.04199 13.3722 4.10354C13.589 4.13375 13.7268 4.15328 13.8416 4.17399C13.8775 4.18044 13.9056 4.1861 13.9275 4.19085C13.9405 4.27358 13.9528 4.37699 13.9734 4.55672C13.9906 4.70641 14 4.85521 14 5H10C10 4.85521 10.0094 4.70641 10.0266 4.55672C10.0472 4.377 10.0595 4.27358 10.0725 4.19085C10.0944 4.1861 10.1225 4.18044 10.1584 4.17399C10.2732 4.15328 10.411 4.13375 10.6278 4.10354ZM10 11C10.5523 11 11 11.4477 11 12V16.0001C11 16.5523 10.5523 17.0001 10 17.0001C9.44772 17.0001 9 16.5523 9 16.0001V12C9 11.4477 9.44772 11 10 11ZM14 11C14.5523 11 15 11.4477 15 12V16.0001C15 16.5523 14.5523 17.0001 14 17.0001C13.4477 17.0001 13 16.5523 13 16.0001V12C13 11.4477 13.4477 11 14 11Z" fill="#8D969F"/>
</svg>
