<svg width="16" height="16" viewBox="0 0 16 16" fill="none" xmlns="http://www.w3.org/2000/svg">
<path fill-rule="evenodd" clip-rule="evenodd" d="M10.9731 2.00491C10.5371 2.03965 10.2651 2.27485 9.72098 2.74525C8.85029 3.49802 7.62146 4.58943 6.62168 5.58894C5.62191 6.58845 4.53021 7.81697 3.77725 8.68743C3.5726 8.92401 3.41245 9.10915 3.29396 9.27869C3.07759 9.55045 2.92491 10.0565 2.69053 10.8334L2.33885 11.999C2.02265 13.0471 1.86455 13.5711 2.14678 13.8533C2.42901 14.1354 2.95317 13.9774 4.0015 13.6612L5.16745 13.3097C5.98494 13.0631 6.50262 12.907 6.76304 12.6721C6.92087 12.5572 7.0943 12.4073 7.31082 12.2201C8.18151 11.4673 9.41035 10.3759 10.4101 9.37639C11.4099 8.37688 12.5016 7.14836 13.2546 6.2779C13.7251 5.73395 13.9603 5.46197 13.9951 5.02615C14.0298 4.59033 13.8791 4.34664 13.5775 3.85926C13.4052 3.58076 13.1962 3.29667 12.9496 3.05013C12.703 2.8036 12.4188 2.59463 12.1403 2.42237C11.6527 2.1209 11.409 1.97017 10.9731 2.00491ZM4.48956 10.1866L4.4975 10.1766L4.52433 10.1382C4.58863 10.0462 4.69001 9.92629 4.91258 9.669C5.65881 8.80632 6.72229 7.61052 7.68304 6.65002C8.02088 6.31226 8.38783 5.96181 8.75916 5.61691L10.3821 7.23947C10.0372 7.6107 9.68661 7.97755 9.34876 8.31531C8.38802 9.2758 7.1919 10.339 6.329 11.085C6.09625 11.2863 5.97547 11.3892 5.87952 11.459L5.81591 11.5053L5.80404 11.516C5.78025 11.5275 5.73104 11.55 5.64631 11.5818C5.43937 11.6595 5.16047 11.7444 4.73401 11.873L3.86565 12.1348L4.12756 11.2667C4.24933 10.8631 4.3322 10.5904 4.40817 10.3834C4.45326 10.2605 4.48142 10.2031 4.48956 10.1866ZM11.3917 6.12661C11.6544 5.83077 11.9005 5.54924 12.1192 5.29633C12.2409 5.1557 12.3284 5.05431 12.4007 4.96565C12.4213 4.94048 12.4388 4.91851 12.4537 4.89934C12.4164 4.83543 12.3694 4.75914 12.301 4.64863C12.1711 4.43865 12.0312 4.25409 11.8882 4.11121C11.7453 3.96833 11.5607 3.82844 11.3507 3.69856C11.2401 3.6302 11.1638 3.58319 11.0999 3.54588C11.0807 3.56081 11.0587 3.57831 11.0336 3.59884C10.9449 3.67115 10.8435 3.75866 10.7028 3.88028C10.4498 4.09899 10.1682 4.34496 9.87231 4.60761L11.3917 6.12661Z" fill="#1D2023"/>
</svg>
