<svg width="24" height="24" viewBox="0 0 24 24" fill="none" xmlns="http://www.w3.org/2000/svg">
<path fill-rule="evenodd" clip-rule="evenodd" d="M16.4596 3.00736C15.8057 3.05947 15.3976 3.41227 14.5815 4.11788C13.2754 5.24703 11.4322 6.88415 9.93253 8.38342C8.43287 9.88268 6.79532 11.7255 5.66587 13.0311C5.35891 13.386 5.11868 13.6637 4.94093 13.918C4.61638 14.3257 4.38737 15.0847 4.03579 16.2501L3.50828 17.9985C3.03398 19.5706 2.79683 20.3567 3.22017 20.7799C3.64351 21.2031 4.42976 20.966 6.00225 20.4919L7.75118 19.9645C8.97741 19.5947 9.75393 19.3606 10.1446 19.0082C10.3813 18.8358 10.6415 18.6109 10.9662 18.3301C12.2723 17.201 14.1155 15.5638 15.6152 14.0646C17.1148 12.5653 18.7524 10.7225 19.8818 9.41685C20.5876 8.60092 20.9405 8.19296 20.9926 7.53923C21.0448 6.88549 20.8186 6.51996 20.3663 5.78889C20.1078 5.37114 19.7943 4.945 19.4244 4.5752C19.0545 4.2054 18.6282 3.89195 18.2104 3.63355C17.4791 3.18135 17.1135 2.95526 16.4596 3.00736ZM6.73434 15.2798L6.74625 15.2649L6.7865 15.2073C6.88295 15.0693 7.03502 14.8894 7.36886 14.5035C8.48821 13.2095 10.0834 11.4158 11.5246 9.97503C12.0313 9.4684 12.5818 8.94271 13.1387 8.42536L15.5732 10.8592C15.0557 11.416 14.5299 11.9663 14.0231 12.473C12.582 13.9137 10.7878 15.5085 9.49349 16.6276C9.14438 16.9294 8.96321 17.0838 8.81928 17.1885L8.72386 17.258L8.70606 17.2741C8.67038 17.2913 8.59656 17.325 8.46947 17.3727C8.15905 17.4893 7.7407 17.6166 7.10102 17.8095L5.79847 18.2023L6.19135 16.9001C6.374 16.2946 6.49829 15.8857 6.61225 15.5751C6.67989 15.3907 6.72213 15.3047 6.73434 15.2798ZM17.0876 9.18992C17.4816 8.74615 17.8507 8.32385 18.1788 7.9445C18.3613 7.73355 18.4926 7.58146 18.6011 7.44848C18.6319 7.41072 18.6582 7.37776 18.6806 7.349C18.6246 7.25314 18.5541 7.13871 18.4515 6.97295C18.2566 6.65797 18.0467 6.38113 17.8324 6.16682C17.618 5.9525 17.3411 5.74266 17.026 5.54783C16.8602 5.44531 16.7457 5.37478 16.6499 5.31882C16.6211 5.34121 16.5881 5.36746 16.5504 5.39826C16.4173 5.50672 16.2652 5.63799 16.0542 5.82042C15.6748 6.14849 15.2523 6.51744 14.8085 6.91141L17.0876 9.18992Z" fill="#1D2023"/>
</svg>
