<svg width="20" height="20" viewBox="0 0 20 20" fill="none" xmlns="http://www.w3.org/2000/svg">
<g clip-path="url(#clip0_43_6678)">
<path fill-rule="evenodd" clip-rule="evenodd" d="M8.34648 15.9376C8.97042 16.1826 9.75482 15.6923 11.3236 14.7116C11.8588 14.377 12.1264 14.2098 12.288 13.9569C12.318 13.9099 12.3451 13.8611 12.369 13.8108C12.4977 13.5396 12.4977 13.224 12.4977 12.5928V9.68618C12.7182 9.50373 12.9551 9.29854 13.2183 9.07058C13.5428 8.78956 13.8673 8.49109 14.1788 8.17955C15.4727 6.88537 16.1197 6.23828 15.9817 5.39572C15.9446 5.16884 15.825 4.88005 15.6908 4.69335C15.1927 4 14.1699 4 12.1242 4H7.87584C5.83012 4 4.80727 4 4.30916 4.69335C4.17503 4.88006 4.05543 5.16884 4.01828 5.39573C3.88032 6.23828 4.52729 6.88537 5.82123 8.17955C6.1327 8.49109 6.45724 8.78956 6.78169 9.07059C7.04456 9.29827 7.28122 9.50326 7.50151 9.68554V12.5937C7.50151 14.4435 7.50151 15.3683 8.03993 15.7677C8.13418 15.8376 8.23725 15.8947 8.34648 15.9376ZM10.9997 8.98109L11.5429 8.53166C11.7478 8.36213 11.9711 8.16879 12.2376 7.93795C12.5394 7.67653 12.8372 7.40246 13.1195 7.12008C13.8043 6.43514 14.1813 6.05115 14.3982 5.74746C14.4413 5.68701 14.4683 5.64331 14.4849 5.61345C14.4402 5.60051 14.3698 5.58414 14.2641 5.56818C13.8286 5.50239 13.1966 5.49832 12.1242 5.49832H7.87584C6.80338 5.49832 6.17138 5.50239 5.73588 5.56818C5.63024 5.58414 5.55985 5.60051 5.51512 5.61345C5.53166 5.64331 5.55867 5.68701 5.60184 5.74746C5.81869 6.05115 6.19569 6.43514 6.8805 7.12008C7.16283 7.40247 7.46055 7.67653 7.76237 7.93795C8.02856 8.16851 8.25169 8.36168 8.45642 8.53109L8.99955 8.9805V12.5937C8.99955 13.4143 9.00179 13.9525 9.0337 14.3358C9.3758 14.1597 9.83357 13.8761 10.5297 13.441C10.6664 13.3555 10.7722 13.2893 10.8627 13.2307C10.9172 13.1953 10.9597 13.1669 10.9932 13.1436C10.9952 13.1028 10.9968 13.0517 10.9979 12.9867C10.9996 12.8789 10.9997 12.7541 10.9997 12.5928V8.98109Z" fill="#1D2023"/>
</g>
<defs>
<clipPath id="clip0_43_6678">
<rect width="16" height="16" fill="white" transform="translate(2 2)"/>
</clipPath>
</defs>
</svg>
