<svg width="40" height="40" viewBox="0 0 40 40" fill="none" xmlns="http://www.w3.org/2000/svg">
<g clip-path="url(#clip0_34_14389)">
<mask id="mask0_34_14389" style="mask-type:luminance" maskUnits="userSpaceOnUse" x="0" y="0" width="40" height="40">
<path d="M25 0H15C6.71573 0 0 6.71573 0 15V25C0 33.2843 6.71573 40 15 40H25C33.2843 40 40 33.2843 40 25V15C40 6.71573 33.2843 0 25 0Z" fill="white"/>
</mask>
<g mask="url(#mask0_34_14389)">
<path d="M40 0H0V40H40V0Z" fill="#FF0032"/>
<path d="M25.6705 5.53857V7.13971H29.1045V13.404L29.1051 13.5071H31.0276V7.13971H34.4615V5.53857H25.6705Z" fill="white"/>
<path d="M13.3036 5.5625L10.7921 10.8005L8.28061 5.5625H5.53848V13.4827H7.46091V7.81436L9.91583 12.603H11.6685L14.1241 7.81436V13.4827H16.0465V5.5625H13.3036Z" fill="white"/>
<path d="M32.5342 31.9621C32.4984 32.2546 32.3657 32.5265 32.1576 32.7342C31.9414 32.9318 31.6756 33.0665 31.3889 33.1237C30.97 33.2071 30.5434 33.246 30.1164 33.2396C29.6616 33.2477 29.2086 33.1811 28.7754 33.0423C28.4201 32.9265 28.1139 32.6943 27.9054 32.3832C27.6957 32.0716 27.5922 31.6216 27.5922 31.0495V30.2381C27.5922 29.6617 27.6979 29.2118 27.9054 28.9002C28.1134 28.5896 28.4189 28.3578 28.7732 28.2417C29.2065 28.1028 29.6596 28.0362 30.1142 28.0445C30.5414 28.0381 30.9679 28.0768 31.3869 28.1603C31.6735 28.2177 31.9392 28.3523 32.1555 28.5498C32.3636 28.7576 32.4962 29.0295 32.5321 29.322H34.456C34.4212 28.7127 34.1899 28.1315 33.797 27.6661C33.4095 27.2381 32.908 26.9307 32.3519 26.7802C31.6225 26.587 30.8699 26.4965 30.1156 26.5113C29.1939 26.5113 28.3945 26.6448 27.7397 26.9072C27.092 27.1577 26.5494 27.6238 26.2024 28.2277C25.8634 28.8123 25.6852 29.593 25.6734 30.5497V30.6417V30.7293C25.6852 31.6861 25.8634 32.4667 26.2024 33.0515C26.5494 33.6553 27.092 34.1213 27.7397 34.3718C28.3952 34.6343 29.1954 34.7677 30.1156 34.7677C30.8699 34.783 31.6226 34.6925 32.3519 34.4988C32.9082 34.349 33.41 34.0415 33.797 33.613C34.19 33.1476 34.4214 32.5663 34.456 31.9571L32.5342 31.9621Z" fill="white"/>
</g>
</g>
<defs>
<clipPath id="clip0_34_14389">
<rect width="40" height="40" fill="white"/>
</clipPath>
</defs>
</svg>
