<svg width="24" height="24" viewBox="0 0 24 24" fill="none" xmlns="http://www.w3.org/2000/svg">
<path fill-rule="evenodd" clip-rule="evenodd" d="M3.08105 9.92478C3.27575 7.30879 3.3731 6.00079 4.68597 4.68792C5.99884 3.37505 7.30684 3.2777 9.92282 3.08301C10.601 3.03254 11.3005 3.00195 12 3.00195C12.6995 3.00195 13.399 3.03254 14.0772 3.08301C16.6932 3.2777 18.0012 3.37505 19.314 4.68792C20.6269 6.00079 20.7243 7.30879 20.9189 9.92478C20.9694 10.6029 21 11.3024 21 12.002C21 12.7015 20.9694 13.401 20.9189 14.0791C20.7243 16.6951 20.6269 18.0031 19.314 19.316C18.0012 20.6289 16.6932 20.7262 14.0772 20.9209C13.399 20.9714 12.6995 21.002 12 21.002C11.3005 21.002 10.601 20.9714 9.92282 20.9209C7.30684 20.7262 5.99884 20.6289 4.68597 19.316C3.3731 18.0031 3.27575 16.6951 3.08105 14.0791C3.03058 13.401 3 12.7015 3 12.002C3 11.3024 3.03058 10.6029 3.08105 9.92478ZM5.93778 17.7303C5.98817 17.7871 6.04218 17.8438 6.10018 17.9018C6.80638 18.608 7.3209 18.7217 10.0713 18.9264C10.7084 18.9738 11.3578 19.002 12 19.002C12.6422 19.002 13.2916 18.9738 13.9287 18.9264C16.6791 18.7217 17.1936 18.608 17.8998 17.9018C18.5331 17.2685 18.6899 16.7894 18.8632 14.7143C18.5421 13.3674 18.1053 12.2029 17.5306 11.0066C16.8281 9.60986 16.2617 8.99658 15.7966 8.99658C15.3594 8.99658 14.7852 9.60986 14.0627 11.0066L12.4182 14.2832C11.9178 15.2803 10.7178 15.2186 10.2159 14.2223C9.87452 13.5446 9.4744 13.0017 9.00366 13.0017C8.42504 13.0017 8.03992 13.6717 7.2697 15.0117L5.93778 17.7303ZM11.75 9.00049C11.75 8.03399 10.9665 7.25049 10 7.25049C9.0335 7.25049 8.25 8.03399 8.25 9.00049C8.25 9.96699 9.0335 10.7505 10 10.7505C10.9665 10.7505 11.75 9.96699 11.75 9.00049Z" fill="#BBC1C7"/>
</svg>
