<svg width="32" height="32" viewBox="0 0 32 32" fill="none" xmlns="http://www.w3.org/2000/svg">
<path d="M16.2799 9.96707C17.0719 8.67898 17.6723 6.85838 17.4551 5C16.1607 5.11334 14.6476 6.15676 13.7647 7.51681C12.9599 8.74914 12.2985 10.5823 12.5568 12.3615C13.9719 12.4173 15.4325 11.3487 16.2799 9.96707Z" fill="#969FA8"/>
<path d="M25 25.1725C24.3175 26.5051 23.989 27.1006 23.1097 28.2809C21.8832 29.9286 20.1538 31.9802 18.0086 31.9953C16.1047 32.0134 15.6137 30.9024 13.0289 30.9159C10.4442 30.928 9.9053 32.0164 7.99794 31.9998C5.8545 31.9832 4.21571 30.1321 2.98918 28.4844C-0.442365 23.8806 -0.803311 18.4764 1.31275 15.6017C2.81812 13.5606 5.19249 12.3667 7.42316 12.3667C9.69318 12.3667 11.1216 13.4641 13.0016 13.4641C14.8251 13.4641 15.9353 12.3636 18.5611 12.3636C20.5489 12.3636 22.6547 13.3179 24.1532 14.964C19.2403 17.3367 20.0357 23.5188 25 25.1725Z" fill="#969FA8"/>
</svg>
