<svg width="16" height="16" viewBox="0 0 16 16" fill="none" xmlns="http://www.w3.org/2000/svg">
<path fill-rule="evenodd" clip-rule="evenodd" d="M8.29414 10.874L9.1302 10.3723C10.535 9.52948 11.4523 8.98247 12.0265 8.51064C12.3008 8.28519 12.422 8.13747 12.4732 8.05572C12.5055 8.00402 12.5055 7.99588 12.4732 7.94418C12.422 7.86243 12.3008 7.7147 12.0265 7.48926C11.4523 7.01743 10.535 6.47041 9.1302 5.62755L8.29414 5.12591C6.90769 4.29404 6.00583 3.76235 5.33494 3.48411C5.00857 3.34876 4.83705 3.31729 4.75973 3.31292C4.7237 3.38147 4.66244 3.54474 4.61059 3.89424C4.504 4.61267 4.5 5.65278 4.5 7.26965L4.5 8.73026C4.5 10.3471 4.504 11.3872 4.61059 12.1057C4.66244 12.4552 4.7237 12.6184 4.75973 12.687C4.83705 12.6826 5.00857 12.6512 5.33494 12.5158C6.00583 12.2376 6.90769 11.7059 8.29414 10.874ZM14 7.99995C14 6.79208 12.625 5.97515 9.90194 4.34131L9.06588 3.83967C6.38003 2.22817 5.0292 1.42242 4.0146 1.99688C3 2.57134 3 4.13744 3 7.26965V8.73026C3 11.8625 3 13.4286 4.0146 14.003C5.0292 14.5775 6.38003 13.7717 9.06588 12.1602L9.90195 11.6586C12.625 10.0247 14 9.20782 14 7.99995Z" fill="#1D2023"/>
</svg>
