<svg width="17" height="16" viewBox="0 0 17 16" fill="none" xmlns="http://www.w3.org/2000/svg">
<path d="M7.74999 12.2496C7.74999 12.664 8.08578 13 8.49999 13C8.91421 13 9.24999 12.664 9.24999 12.2496V8.74707L12.75 8.74707C13.1642 8.74707 13.5 8.4111 13.5 7.99666C13.5 7.58223 13.1642 7.24626 12.75 7.24626L9.24999 7.24626L9.25 3.7504C9.25 3.33597 8.91421 3 8.5 3C8.08579 3 7.75 3.33597 7.75 3.7504L7.74999 7.24626L4.25 7.24627C3.83579 7.24627 3.5 7.58223 3.5 7.99667C3.5 8.41111 3.83579 8.74707 4.25 8.74707L7.74999 8.74707V12.2496Z" fill="#1D2023"/>
</svg>
