<svg width="44" height="44" viewBox="0 0 44 44" fill="none" xmlns="http://www.w3.org/2000/svg">
<rect width="44" height="44" rx="22" fill="white"/>
<g clip-path="url(#clip0_24_13252)">
<path fill-rule="evenodd" clip-rule="evenodd" d="M14.7015 16.304C14.1554 17.3139 14.1168 17.9457 14.0396 19.2092C14.0136 19.6341 13.9985 20.0675 13.9985 20.5008C13.9985 20.9342 14.0136 21.3676 14.0396 21.7925C14.1168 23.056 14.1554 23.6877 14.7015 24.6977C15.0593 25.3595 16.1408 26.4409 16.8025 26.7987C17.8125 27.3448 18.4442 27.3834 19.7077 27.4606C20.1326 27.4866 20.566 27.5017 20.9994 27.5017C21.4327 27.5017 21.8661 27.4866 22.2911 27.4606C23.5545 27.3834 24.1863 27.3448 25.1962 26.7987C25.3218 26.7308 25.4624 26.6369 25.6104 26.5247L29.2929 30.2073C29.6834 30.5978 30.3166 30.5978 30.7071 30.2073C31.0976 29.8167 31.0976 29.1836 30.7071 28.793L27.0244 25.1103C27.1361 24.9629 27.2296 24.8228 27.2972 24.6977C27.8433 23.6877 27.8819 23.056 27.9591 21.7925C27.9851 21.3676 28.0002 20.9342 28.0002 20.5008C28.0002 20.0675 27.9851 19.6341 27.9591 19.2092C27.8819 17.9457 27.8433 17.3139 27.2972 16.304C26.9394 15.6422 25.858 14.5608 25.1962 14.203C24.1863 13.6569 23.5545 13.6183 22.2911 13.5411C21.8661 13.5151 21.4327 13.5 20.9994 13.5C20.566 13.5 20.1326 13.5151 19.7077 13.5411C18.4442 13.6183 17.8125 13.6569 16.8025 14.203C16.1408 14.5608 15.0593 15.6422 14.7015 16.304ZM19.8297 15.5373C20.2196 15.5135 20.6119 15.5 20.9994 15.5C21.3868 15.5 21.7792 15.5135 22.169 15.5373C23.41 15.6132 23.6524 15.6419 24.245 15.9623C24.245 15.9623 24.2514 15.9658 24.2646 15.974C24.2782 15.9825 24.2966 15.9946 24.3198 16.0107C24.3669 16.0435 24.4256 16.0874 24.4945 16.1432C24.6334 16.2558 24.7901 16.3973 24.9465 16.5537C25.1029 16.7101 25.2445 16.8668 25.357 17.0057C25.4128 17.0746 25.4568 17.1333 25.4895 17.1804C25.5056 17.2036 25.5177 17.222 25.5262 17.2356C25.5348 17.2494 25.5379 17.2552 25.5379 17.2552C25.8584 17.8478 25.887 18.0902 25.9629 19.3312C25.9867 19.7211 26.0002 20.1134 26.0002 20.5008C26.0002 20.8883 25.9867 21.2806 25.9629 21.6705C25.887 22.9115 25.8584 23.1538 25.5379 23.7465C25.5379 23.7465 25.5348 23.7523 25.5262 23.7661C25.5177 23.7797 25.5056 23.7981 25.4895 23.8213C25.4568 23.8683 25.4128 23.9271 25.357 23.9959C25.2445 24.1349 25.1029 24.2916 24.9465 24.448C24.7901 24.6043 24.6334 24.7459 24.4945 24.8585C24.4256 24.9142 24.3669 24.9582 24.3198 24.991C24.2966 25.0071 24.2782 25.0191 24.2646 25.0276C24.2508 25.0363 24.245 25.0394 24.245 25.0394C23.6524 25.3598 23.41 25.3885 22.169 25.4643C21.7792 25.4882 21.3868 25.5017 20.9994 25.5017C20.6119 25.5017 20.2196 25.4882 19.8297 25.4643C18.5888 25.3885 18.3464 25.3598 17.7538 25.0394C17.7538 25.0394 17.7479 25.0363 17.7341 25.0276C17.7205 25.0191 17.7021 25.0071 17.679 24.991C17.6319 24.9582 17.5731 24.9142 17.5043 24.8585C17.3654 24.7459 17.2086 24.6043 17.0522 24.448C16.8959 24.2916 16.7543 24.1349 16.6418 23.9959C16.586 23.9271 16.542 23.8683 16.5093 23.8213C16.4931 23.7981 16.4811 23.7797 16.4726 23.7661C16.4643 23.7529 16.4608 23.7464 16.4608 23.7464C16.1404 23.1538 16.1117 22.9114 16.0359 21.6705C16.012 21.2806 15.9985 20.8883 15.9985 20.5008C15.9985 20.1134 16.012 19.7211 16.0359 19.3312C16.1117 18.0902 16.1404 17.8479 16.4608 17.2553C16.4608 17.2553 16.4643 17.2488 16.4726 17.2356C16.4811 17.222 16.4931 17.2036 16.5093 17.1804C16.542 17.1333 16.586 17.0746 16.6418 17.0057C16.7543 16.8668 16.8959 16.7101 17.0522 16.5537C17.2086 16.3973 17.3654 16.2558 17.5043 16.1432C17.5731 16.0874 17.6319 16.0435 17.679 16.0107C17.7021 15.9946 17.7205 15.9825 17.7341 15.974C17.7479 15.9654 17.7538 15.9623 17.7538 15.9623C18.3464 15.6419 18.5888 15.6132 19.8297 15.5373Z" fill="#1D2023"/>
</g>
<defs>
<clipPath id="clip0_24_13252">
<rect width="24" height="24" fill="white" transform="translate(10 10)"/>
</clipPath>
</defs>
</svg>
