<svg width="52" height="52" viewBox="0 0 52 52" fill="none" xmlns="http://www.w3.org/2000/svg">
<rect width="52" height="52" rx="16" fill="#BBC1C7"/>
<path fill-rule="evenodd" clip-rule="evenodd" d="M47.2605 45.9104C44.5117 49.0311 40.486 50.9999 36.0005 50.9999H16.0005C11.5159 50.9999 7.49095 49.0319 4.74219 45.9123C6.38466 44.5301 8.55615 43.7531 11.2075 42.8044L11.2099 42.8036C11.537 42.6866 11.8745 42.5679 12.2216 42.4459C14.6511 41.5917 17.5481 40.5732 20.6147 38.8082V38.1449C20.6147 38.0046 20.6163 37.8648 20.6179 37.7259C20.6275 36.9152 20.6367 36.1317 20.3172 35.4223C20.1567 35.2788 19.9825 35.128 19.8007 34.9708C18.8963 34.1885 17.805 33.2446 17.2959 32.2127L17.2731 32.1923C17.2584 32.1538 17.2438 32.1149 17.2293 32.0758C16.7389 31.0541 16.3594 29.9506 16.0825 28.8351H16.0031C15.6063 28.8351 15.3683 28.2756 15.3683 27.716V27.4762L15.3682 27.4761C15.2095 27.1563 14.9714 26.6767 14.8128 26.0374C14.7922 25.9805 14.77 25.9199 14.7466 25.8562C14.4088 24.9346 13.8273 23.3478 14.4953 22.6002C14.5017 22.5938 14.508 22.5876 14.5143 22.5815C14.5656 22.4603 14.6374 22.3581 14.7336 22.2805C15.0397 22.0956 15.2513 22.1484 15.4413 22.3656C15.4366 21.5058 15.5047 19.0061 16.348 16.3981C17.4187 12.8134 18.931 8.66992 26.0025 8.66992C33.0741 8.66992 34.5862 12.8134 35.6569 16.3981C36.5001 19.0061 36.5684 21.5058 36.5637 22.3656C36.7537 22.1484 36.9654 22.0956 37.2715 22.2805C37.3674 22.3581 37.4394 22.4603 37.4905 22.5815C37.4949 22.5857 37.4992 22.5899 37.5035 22.5942C37.5056 22.5962 37.5076 22.5982 37.5096 22.6002C38.1771 23.3473 37.5967 24.9325 37.2591 25.8544L37.2584 25.8562C37.235 25.92 37.2126 25.9805 37.1922 26.0374C37.0333 26.6768 36.7955 27.1564 36.6366 27.4761V27.716C36.6366 28.2756 36.3985 28.8351 36.0018 28.8351H35.9225C35.6455 29.9506 35.2659 31.0541 34.7756 32.0758C34.7612 32.1149 34.7465 32.1538 34.7317 32.1923L34.709 32.2127C34.1999 33.2446 33.1086 34.1885 32.2042 34.9708C32.0224 35.128 31.8482 35.2788 31.6877 35.4223C31.3683 36.1316 31.3775 36.9149 31.3871 37.7255C31.3887 37.8646 31.3904 38.0044 31.3904 38.1449V38.8082C34.4576 40.5736 37.355 41.5922 39.785 42.4465C40.1315 42.5683 40.4685 42.6868 40.7952 42.8036L40.7983 42.8047C43.448 43.7529 45.6185 44.5296 47.2605 45.9104Z" fill="white"/>
</svg>
