<svg width="52" height="52" viewBox="0 0 52 52" fill="none" xmlns="http://www.w3.org/2000/svg">
<rect width="52" height="52" rx="16" fill="#BBC1C7"/>
<path fill-rule="evenodd" clip-rule="evenodd" d="M47.0096 46.1874C44.2696 49.1471 40.351 50.9999 35.9997 50.9999H15.9997C11.5852 50.9999 7.61597 49.0929 4.87109 46.0576C6.35771 44.8491 8.30201 44.1224 10.7023 43.2253C13.1364 42.3156 16.0394 41.2306 19.4096 39.2902V36.1928C17.4212 34.7922 16.8758 32.5802 16.2347 29.9799C16.1887 29.7934 16.1422 29.6048 16.0947 29.4144H16.0157C15.7 29.4144 15.3843 28.9403 15.3843 28.3873C15.3843 28.3083 15.4041 28.2688 15.4238 28.2293C15.4435 28.1898 15.4633 28.1503 15.4633 28.0713C15.2265 27.7553 14.9897 27.2812 14.8319 26.7282C14.794 26.5892 14.744 26.428 14.6893 26.2516C14.4022 25.3254 13.9857 23.982 14.5161 23.2519C15.1476 22.6988 15.4633 23.3309 15.4633 23.3309L15.4513 23.2678C14.5844 18.6928 13.4405 12.6564 19.8042 10.7689C19.8042 6.81858 34.8002 8.55672 36.5365 15.0352C37.4047 17.5634 36.2998 23.2519 36.2998 23.2519C36.5365 22.8569 36.8522 22.6989 37.1679 23.0149C37.9202 23.4941 37.3095 25.3378 36.979 26.3355C36.9281 26.4891 36.8838 26.6227 36.8522 26.7282C36.6944 27.4392 36.4576 27.8342 36.2208 28.2293L36.2208 28.2293L36.2998 28.3873C36.2998 28.9403 35.984 29.4144 35.6683 29.4144C35.2737 31.9426 34.5634 34.7868 32.5902 36.1299V39.2902C35.8738 41.1807 38.7138 42.3001 41.1088 43.2441C43.5319 44.1991 45.4993 44.9746 47.0096 46.1874Z" fill="white"/>
</svg>
