<svg width="52" height="52" viewBox="0 0 52 52" fill="none" xmlns="http://www.w3.org/2000/svg">
<rect width="52" height="52" rx="16" fill="#BBC1C7"/>
<path fill-rule="evenodd" clip-rule="evenodd" d="M46.5512 46.6608C43.8411 49.3434 40.1136 50.9999 35.9992 50.9999H15.9992C11.8858 50.9999 8.1591 49.3442 5.44922 46.6629C7.04397 45.212 9.19535 44.4374 11.8495 43.482L11.8518 43.481C12.0216 43.42 12.1944 43.3585 12.37 43.2959L12.8196 43.1367C13.1082 43.0345 13.4038 42.9323 13.7057 42.8278L13.834 42.7834L13.8349 42.7831C15.8516 42.086 18.145 41.2932 20.5551 39.9311V39.9213V37.9646C20.227 37.9719 19.9064 37.9803 19.5964 37.9899C17.6575 38.0499 15.0078 38.2899 13.4383 38.4454C12.9146 38.4972 12.4704 38.0056 12.4732 37.4856C12.4728 37.4188 12.4799 37.3514 12.495 37.2847C12.6903 36.4232 12.9054 35.1108 12.9915 33.2918C12.9994 33.1256 13.0062 32.9551 13.0119 32.7803C13.015 32.685 13.0177 32.5885 13.0201 32.4907V32.481C13.0235 32.3377 13.0251 32.1876 13.0251 32.0311C13.0249 30.829 12.9319 29.2548 12.8313 27.5528L12.8311 27.5499C12.8137 27.2557 12.799 26.9681 12.7862 26.6869C12.7219 25.2828 12.7155 24.0369 12.7844 22.917C12.9201 20.7095 13.3477 18.9908 14.1976 17.5122C15.7976 14.7285 17.5327 14.3094 17.5327 14.3094C17.5327 14.3094 17.5327 10.2231 24.1149 8.93206C24.7256 8.76249 25.3971 8.66999 26.1355 8.66999L26.1977 8.67018L26.2599 8.66999C26.3018 8.66999 26.3434 8.67028 26.3847 8.67084C26.4172 8.67042 26.4542 8.6701 26.4844 8.66999C29.5492 8.65846 32.4362 10.0631 34.3002 12.3228C37.2867 15.9439 38.8988 20.0344 39.1121 24.0192C39.2267 25.1747 39.2773 26.3799 39.2087 27.5401V27.5431L39.2085 27.5469C39.0945 29.4741 38.9903 31.2367 39.0199 32.481C39.0728 34.7267 39.3218 36.3002 39.545 37.2847C39.677 37.8673 39.1894 38.4938 38.6015 38.4356C37.0854 38.2855 33.5948 38.0563 31.6772 37.9869V39.9311C34.4174 41.4506 36.9988 42.364 39.1849 43.1371L39.2113 43.1464C39.5335 43.2605 39.8471 43.3715 40.1512 43.481L40.1541 43.482L40.1563 43.4829C42.8076 44.4376 44.9573 45.2121 46.5512 46.6608Z" fill="white"/>
</svg>
