<svg width="25" height="24" viewBox="0 0 25 24" fill="none" xmlns="http://www.w3.org/2000/svg">
<path fill-rule="evenodd" clip-rule="evenodd" d="M12.3602 2.5C11.8296 2.5 11.318 2.69711 10.9245 3.05307L7.43952 6.20617C7.35209 6.28527 7.31956 6.31463 7.28726 6.34254C7.04834 6.54907 6.7858 6.72658 6.50512 6.87136C6.46719 6.89093 6.42782 6.91019 6.32184 6.96185L5.47959 7.37245C3.65658 8.26117 2.5 10.1117 2.5 12.1398V12.3777C2.5 14.6716 4.06116 16.6711 6.28654 17.2274C6.76459 17.3469 7.20582 17.5824 7.57122 17.913L10.9245 20.9469C11.318 21.3029 11.8296 21.5 12.3602 21.5C13.542 21.5 14.5 20.542 14.5 19.3602V12V4.63984C14.5 3.45804 13.542 2.5 12.3602 2.5ZM12.2663 4.53614C12.2921 4.51288 12.3255 4.5 12.3602 4.5C12.4374 4.5 12.5 4.56261 12.5 4.63984V12V19.3602C12.5 19.4374 12.4374 19.5 12.3602 19.5C12.3255 19.5 12.2921 19.4871 12.2663 19.4639L8.91305 16.4299C8.30396 15.8788 7.56847 15.4863 6.77161 15.2871C5.43657 14.9534 4.5 13.7538 4.5 12.3777V12.1398C4.5 10.8765 5.22044 9.72379 6.356 9.1702L7.19824 8.75961L7.20831 8.7547C7.30091 8.70956 7.36152 8.68001 7.42198 8.64883C7.84299 8.43166 8.2368 8.16539 8.59519 7.8556C8.64666 7.8111 8.69667 7.76586 8.77307 7.69672L8.78135 7.68924L12.2663 4.53614ZM17.4996 7.5C17.4971 7.24369 17.5929 6.98749 17.7959 6.7845C17.9856 6.59499 18.2426 6.50056 18.4997 6.5C18.7698 6.49942 19.0401 6.60252 19.2327 6.80791C19.4732 7.06836 19.7072 7.33153 19.9335 7.5944C21.6435 9.58024 22.4984 10.6464 22.4996 12.5006C22.5009 14.3548 21.6472 15.4153 19.9398 17.4034C19.7136 17.6667 19.4798 17.9304 19.2395 18.1912C19.0454 18.3986 18.7722 18.5021 18.4997 18.5C18.2446 18.498 17.9901 18.4036 17.8019 18.2154C17.5989 18.0124 17.4971 17.7563 17.4996 17.5C17.502 17.2636 17.5933 17.027 17.7724 16.832L17.8004 16.8015C18.0124 16.5705 18.2201 16.336 18.4225 16.1003C20.2176 14.0101 20.5003 13.4992 20.4996 12.5019C20.499 11.5046 20.2158 10.9873 18.418 8.89941C18.2153 8.66405 18.0074 8.42985 17.795 8.19911L17.7671 8.16881C17.5875 7.97367 17.502 7.73679 17.4996 7.5ZM18.4997 12.4932C18.4999 13.4131 18.1148 13.9763 17.3567 14.8655C17.0576 15.2164 16.7127 15.5069 16.3235 15.5C16.1262 15.4965 15.9176 15.4167 15.6977 15.2297C15.08 14.7044 15.3764 14.1046 15.8009 13.6072C16.1419 13.2076 16.3073 12.9886 16.4113 12.8118C16.4113 12.8118 16.4997 12.6797 16.4997 12.5C16.4997 12.3203 16.4113 12.1882 16.4113 12.1882C16.3073 12.0114 16.1419 11.7924 15.8009 11.3928C15.3764 10.8954 15.08 10.2956 15.6977 9.77032C15.9176 9.58332 16.1262 9.50349 16.3235 9.5C16.7127 9.49312 17.0576 9.78356 17.3567 10.1345C18.1148 11.0237 18.4999 11.5733 18.4997 12.4932Z" fill="#FF0032"/>
</svg>
