<svg width="68" height="68" viewBox="0 0 68 68" fill="none" xmlns="http://www.w3.org/2000/svg">
<g clip-path="url(#clip0_2768_6699)">
<mask id="mask0_2768_6699" style="mask-type:alpha" maskUnits="userSpaceOnUse" x="0" y="0" width="68" height="68">
<path d="M0 29.6727C0 19.2863 0 14.0931 2.02133 10.126C3.79935 6.63644 6.63644 3.79935 10.126 2.02133C14.0931 0 19.2863 0 29.6727 0H38.3273C48.7137 0 53.9069 0 57.874 2.02133C61.3636 3.79935 64.2006 6.63644 65.9787 10.126C68 14.0931 68 19.2863 68 29.6727V38.3273C68 48.7137 68 53.9069 65.9787 57.874C64.2006 61.3636 61.3636 64.2006 57.874 65.9787C53.9069 68 48.7137 68 38.3273 68H29.6727C19.2863 68 14.0931 68 10.126 65.9787C6.63644 64.2006 3.79935 61.3636 2.02133 57.874C0 53.9069 0 48.7137 0 38.3273V29.6727Z" fill="#0097FD"/>
</mask>
<g mask="url(#mask0_2768_6699)">
<rect width="68" height="68" fill="#0097FD"/>
<g clip-path="url(#clip1_2768_6699)">
<path fill-rule="evenodd" clip-rule="evenodd" d="M34 39.3934L36.186 40.9808C38.4475 42.623 39.944 43.7046 41.0563 44.3491C41.1307 44.3922 41.2003 44.4314 41.2652 44.4671C41.2543 44.3938 41.2417 44.3149 41.227 44.2303C41.0084 42.964 40.5129 41.1859 39.7569 38.4961L39.2077 36.5421L40.9365 35.1369C43.2793 33.2327 44.8029 31.987 45.742 31.0121C45.7852 30.9673 45.8257 30.9245 45.8637 30.8836C45.8089 30.8732 45.7508 30.8627 45.6895 30.8522C44.3549 30.6237 42.389 30.5234 39.3728 30.3783L37.3672 30.2819L36.6389 28.4118C35.4964 25.4785 34.7473 23.5726 34.0764 22.3432C34.0501 22.295 34.0246 22.2492 34 22.2057C33.9754 22.2492 33.9499 22.295 33.9236 22.3432C33.2527 23.5726 32.5036 25.4785 31.3611 28.4118L30.6328 30.2819L28.6273 30.3783C25.611 30.5234 23.6452 30.6237 22.3105 30.8522C22.2492 30.8627 22.1912 30.8732 22.1363 30.8836C22.1743 30.9245 22.2148 30.9673 22.258 31.0121C23.1971 31.987 24.7207 33.2327 27.0635 35.1369L28.7923 36.5421L28.2431 38.4961C27.4871 41.1859 26.9916 42.964 26.773 44.2303C26.7584 44.3149 26.7457 44.3938 26.7348 44.4671C26.7998 44.4314 26.8694 44.3922 26.9437 44.3491C28.056 43.7046 29.5525 42.623 31.814 40.9808L34 39.3934ZM34 43.2148L33.6322 43.4819C29.229 46.6793 27.0274 48.278 25.5588 47.8363C24.9298 47.6471 24.3773 47.2627 23.9815 46.7388C23.0573 45.5155 23.7932 42.897 25.2651 37.66L25.1119 37.5355C20.5633 33.8384 18.289 31.9899 18.5684 30.2306C18.6203 29.9044 18.724 29.5885 18.8759 29.2951C19.6945 27.7129 22.6226 27.572 28.4786 27.2903C30.6955 21.5983 31.804 18.7523 33.6869 18.5608C33.8951 18.5396 34.1049 18.5396 34.3132 18.5608C36.196 18.7523 37.3045 21.5983 39.5214 27.2903C45.3775 27.572 48.3055 27.7129 49.1242 29.2951C49.276 29.5885 49.3798 29.9044 49.4316 30.2306C49.711 31.9899 47.4367 33.8384 42.8882 37.5355L42.7349 37.66C44.2068 42.897 44.9427 45.5155 44.0185 46.7388C43.6227 47.2627 43.0703 47.6471 42.4413 47.8363C40.9726 48.278 38.771 46.6793 34.3678 43.4819L34 43.2148Z" fill="white"/>
</g>
</g>
</g>
<defs>
<clipPath id="clip0_2768_6699">
<rect width="68" height="68" fill="white"/>
</clipPath>
<clipPath id="clip1_2768_6699">
<rect width="37.0909" height="37.0909" fill="white" transform="translate(15.4546 15.4541)"/>
</clipPath>
</defs>
</svg>
