<svg width="16" height="16" viewBox="0 0 16 16" fill="none" xmlns="http://www.w3.org/2000/svg">
<path fill-rule="evenodd" clip-rule="evenodd" d="M8 3.50098C7.57663 3.50098 7.1479 3.51952 6.72655 3.55087C4.88177 3.68817 4.60488 3.76537 4.18464 4.18562C3.7644 4.60586 3.6872 4.88275 3.5499 6.72752C3.51854 7.14888 3.5 7.57761 3.5 8.00098C3.5 8.42434 3.51854 8.85308 3.5499 9.27443C3.6872 11.1192 3.7644 11.3961 4.18464 11.8163C4.60488 12.2366 4.88177 12.3138 6.72654 12.4511C7.1479 12.4824 7.57663 12.501 8 12.501C8.42337 12.501 8.8521 12.4824 9.27346 12.4511C11.1182 12.3138 11.3951 12.2366 11.8154 11.8163C12.2356 11.3961 12.3128 11.1192 12.4501 9.27443C12.4815 8.85308 12.5 8.42434 12.5 8.00098C12.5 7.57761 12.4815 7.14888 12.4501 6.72752C12.3128 4.88275 12.2356 4.60586 11.8154 4.18562C11.3951 3.76537 11.1182 3.68817 9.27346 3.55087C8.8521 3.51952 8.42337 3.50098 8 3.50098ZM3.12398 3.12496C2.24873 4.0002 2.18383 4.8722 2.05404 6.61619C2.02039 7.06828 2 7.53463 2 8.00098C2 8.46733 2.02039 8.93367 2.05404 9.38576C2.18383 11.1298 2.24873 12.0017 3.12398 12.877C3.99923 13.7522 4.87122 13.8171 6.61522 13.9469C7.0673 13.9806 7.53365 14.001 8 14.001C8.46635 14.001 8.9327 13.9806 9.38478 13.9469C11.1288 13.8171 12.0008 13.7522 12.876 12.877C13.7513 12.0017 13.8162 11.1298 13.946 9.38576C13.9796 8.93368 14 8.46733 14 8.00098C14 7.53463 13.9796 7.06828 13.946 6.61619C13.8162 4.8722 13.7513 4.0002 12.876 3.12496C12.0008 2.24971 11.1288 2.18481 9.38479 2.05501C8.9327 2.02137 8.46635 2.00098 8 2.00098C7.53365 2.00098 7.0673 2.02137 6.61522 2.05501C4.87122 2.18481 3.99923 2.24971 3.12398 3.12496Z" fill="#1D2023"/>
</svg>
