<svg width="44" height="44" viewBox="0 0 44 44" fill="none" xmlns="http://www.w3.org/2000/svg">
<path fill-rule="evenodd" clip-rule="evenodd" d="M4.12143 4.1224C0.91205 7.33177 0.67408 10.5292 0.198139 16.9241C0.074763 18.5818 0 20.2918 0 22.0019C0 23.7119 0.0747617 25.4219 0.198137 27.0796C0.674075 33.4745 0.912045 36.672 4.12142 39.8813C7.33079 43.0907 10.5282 43.3287 16.9231 43.8046C18.5809 43.928 20.2909 44.0028 22.0009 44.0028C23.7109 44.0028 25.4209 43.928 27.0786 43.8046C33.4735 43.3287 36.671 43.0907 39.8804 39.8813C43.0897 36.672 43.3277 33.4745 43.8036 27.0796C43.927 25.4219 44.0018 23.7119 44.0018 22.0019C44.0018 20.2919 43.927 18.5818 43.8036 16.9241C43.3277 10.5292 43.0897 7.33178 39.8804 4.1224C36.671 0.913027 33.4735 0.675057 27.0786 0.199116C25.4209 0.0757395 23.7109 0.000976562 22.0009 0.000976562C20.2909 0.000976562 18.5809 0.0757382 16.9231 0.199113C10.5283 0.675052 7.3308 0.913021 4.12143 4.1224ZM8 14C8.22736 25.2433 13.6839 32 23.2504 32H23.7927V25.5675C27.308 25.9279 29.9661 28.5766 31.033 32H36C34.6359 26.8829 31.0504 24.054 28.8118 22.9729C31.0504 21.6396 34.1985 18.3964 34.9505 14H30.4382C29.4588 17.5676 26.5559 20.8108 23.7927 21.1171V14H19.2804V26.4684C16.4821 25.7477 12.9494 22.2523 12.792 14H8Z" fill="#BBC1C7"/>
</svg>