<svg width="374" height="75" viewBox="0 0 374 75" fill="none" xmlns="http://www.w3.org/2000/svg">
<rect width="374" height="75" rx="16" fill="#F2F3F7"/>
<path d="M30.9999 44.998C30.4475 44.972 30 44.7016 30 44.3946C30 39.7982 30 35.2018 30 30.6054C30 30.2984 30.4475 30.028 30.9999 30.002C31.5522 29.976 32 30.2077 32 30.5193C32 35.1731 32 39.8269 32 44.4807C32 44.7922 31.5522 45.024 30.9999 44.998Z" fill="#FF0032"/>
<path d="M36.9997 42.9993C36.4474 42.9835 36 42.7132 36 42.3959C36 39.132 36 35.868 36 32.604C36 32.2869 36.4477 32.0166 36.9997 32.0007C37.552 31.9849 38 32.2324 38 32.5535C38 35.8511 38 39.1487 38 42.4464C37.9997 42.7675 37.5518 43.0152 36.9997 42.9993Z" fill="#FF0032"/>
<path d="M42.9997 52.9839C42.4474 52.9131 42 52.6322 42 52.3574C42 42.4525 42 32.5475 42 22.6426C42 22.3677 42.4474 22.0869 42.9997 22.0161C43.552 21.9452 44 22.1156 44 22.3959C44 32.4653 44 42.5347 44 52.6043C44 52.8844 43.552 53.0548 42.9997 52.9839Z" fill="#FF0032"/>
<path d="M48.9997 52.9839C48.4474 52.9131 48 52.6322 48 52.3574C48 42.4525 48 32.5475 48 22.6426C48 22.3677 48.4474 22.0869 48.9997 22.0161C49.552 21.9452 50 22.1156 50 22.3959C50 32.4653 50 42.5347 50 52.6043C50 52.8844 49.552 53.0548 48.9997 52.9839Z" fill="#FF0032"/>
<path d="M54.9998 41.9988C54.4473 41.9799 54 41.7359 54 41.4542C54 38.8181 54 36.1819 54 33.5458C54 33.2642 54.4476 33.0202 54.9998 33.0012C55.5519 32.9822 56 33.1994 56 33.4862C56 36.162 56 38.838 56 41.5138C56 41.8006 55.5522 42.0178 54.9998 41.9988Z" fill="#FF0032"/>
<path d="M60.9998 45.9937C60.4476 45.9507 60 45.7046 60 45.4445C60 40.1482 60 34.8518 60 29.5555C60 29.2954 60.4474 29.0493 60.9998 29.0063C61.5521 28.9633 62.0003 29.1443 62 29.41C62 34.8034 62 40.1967 62 45.5901C62.0003 45.8556 61.5523 46.0367 60.9998 45.9937Z" fill="#FF0032"/>
<path d="M66.9997 52.9839C66.4474 52.9131 66 52.6322 66 52.3574C66 42.4525 66 32.5475 66 22.6426C66 22.3677 66.4474 22.0869 66.9997 22.0161C67.552 21.9452 68 22.1156 68 22.3959C68 32.4653 68 42.5347 68 52.6043C68 52.8844 67.552 53.0548 66.9997 52.9839Z" fill="#FF0032"/>
<path d="M72.9998 41.9988C72.4473 41.9799 72 41.7359 72 41.4542C72 38.8181 72 36.1819 72 33.5458C72 33.2642 72.4476 33.0202 72.9998 33.0012C73.5519 32.9822 74 33.1994 74 33.4862C74 36.162 74 38.838 74 41.5138C74 41.8006 73.5522 42.0178 72.9998 41.9988Z" fill="#FF0032"/>
<path d="M78.9998 41.999C78.4475 41.9818 78 41.7487 78 41.4787C78 38.8263 78 36.1737 78 33.5213C78 33.2513 78.4475 33.0182 78.9998 33.001C79.552 32.9838 80 33.1923 80 33.4667C80 36.1555 80 38.8444 80 41.5333C79.9997 41.8076 79.5517 42.0162 78.9998 41.999Z" fill="#FF0032"/>
<path d="M84.9999 44.998C84.4475 44.972 84 44.7016 84 44.3946C84 39.7982 84 35.2018 84 30.6054C84 30.2984 84.4475 30.028 84.9999 30.002C85.5522 29.976 86 30.2077 86 30.5193C86 35.1731 86 39.8269 86 44.4807C86 44.7922 85.5522 45.024 84.9999 44.998Z" fill="#FF0032"/>
<path d="M90.9997 45.9978C90.4476 45.971 90 45.7085 90 45.4117C90 40.1372 90 34.8628 90 29.5883C90 29.2916 90.4476 29.029 90.9997 29.0022C91.5519 28.9754 92 29.1978 92 29.4985C92 34.8328 92 40.1671 92 45.5014C91.9997 45.8022 91.5519 46.0246 90.9997 45.9978Z" fill="#FF0032"/>
<path d="M96.9997 42.9993C96.4474 42.9835 96 42.7132 96 42.3959C96 39.132 96 35.868 96 32.604C96 32.2869 96.4477 32.0166 96.9997 32.0007C97.552 31.9849 98 32.2324 98 32.5535C98 35.8511 98 39.1487 98 42.4464C97.9997 42.7675 97.5518 43.0152 96.9997 42.9993Z" fill="#FF0032"/>
<path d="M103 49.4973C102.448 49.4663 102 49.1731 102 48.8432C102 41.2811 102 33.7189 102 26.1568C102 25.8269 102.448 25.5337 103 25.5027C103.552 25.4716 104 25.7173 104 26.0509C104 33.6836 104 41.3165 104 48.9493C104 49.2827 103.552 49.5284 103 49.4973Z" fill="#FF0032"/>
<path d="M109 49.9977C108.448 49.9685 108 49.6654 108 49.3215C108 41.4405 108 33.5595 108 25.6785C108 25.3345 108.448 25.0316 109 25.0023C109.552 24.973 110 25.2312 110 25.5786C110 33.5262 110 41.4737 110 49.4212C110 49.7686 109.552 50.0271 109 49.9977Z" fill="#FF0032"/>
<path d="M115 42.9996C114.448 42.988 114 42.7097 114 42.3785C114 39.1261 114 35.8739 114 32.6215C114 32.2904 114.448 32.0121 115 32.0004C115.552 31.9886 116 32.2503 116 32.5845C116 35.8615 116 39.1385 116 42.4155C116 42.7497 115.552 43.0114 115 42.9996Z" fill="#FF0032"/>
<path d="M121 42.9997C120.448 42.9892 120 42.6726 120 42.2931C120 39.0976 120 35.9024 120 32.7069C120 32.3273 120.448 32.0107 121 32.0003C121.552 31.9897 122 32.2917 122 32.6744C122 35.8914 122 39.1086 122 42.3256C122 42.7083 121.552 43.0103 121 42.9997Z" fill="#FF0032"/>
<path d="M127 43.9997C126.448 43.9886 126 43.6867 126 43.3256C126 39.4419 126 35.5581 126 31.6744C126 31.3133 126.448 31.0114 127 31.0003C127.552 30.9893 128 31.2754 128 31.6392C128 35.5464 128 39.4535 128 43.3607C128 43.7246 127.552 44.0107 127 43.9997Z" fill="#FF0032"/>
<path d="M133 43.4998C132.448 43.4908 132 43.19 132 42.8282C132 39.2761 132 35.7239 132 32.1718C132 31.8101 132.448 31.5092 133 31.5002C133.552 31.4913 134 31.7793 134 32.1434C134 35.7144 134 39.2855 134 42.8566C134 43.2206 133.552 43.5087 133 43.4998Z" fill="#FF0032"/>
<path d="M139 42.9999C138.448 42.9927 138 42.6785 138 42.2984C138 39.0994 138 35.9006 138 32.7016C138 32.3215 138.448 32.0073 139 32.0001C139.552 31.9929 140 32.2972 140 32.6794C140 35.8931 140 39.1069 140 42.3206C140 42.7029 139.552 43.0072 139 42.9999Z" fill="#FF0032"/>
<path d="M145 41.9999C144.448 41.9949 144 41.7112 144 41.3666C144 38.7888 144 36.211 144 33.6334C144 33.2888 144.448 33.0051 145 33.0001C145.552 32.995 146 33.2718 146 33.6181C146 36.2061 146 38.7941 146 41.382C146 41.7282 145.552 42.005 145 41.9999Z" fill="#FF0032"/>
<path d="M151 55.9993C150.448 55.9822 150 55.6611 150 55.2825C150 43.4275 150 31.5725 150 19.7175C150 19.339 150.448 19.0178 151 19.0007C151.552 18.9836 152 19.2785 152 19.6584C152 31.5528 152 43.4472 152 55.3416C152 55.7215 151.552 56.0163 151 55.9993Z" fill="#FF0032"/>
<path d="M157 50.9998C156.448 50.9896 156 50.6729 156 50.2927C156 41.7643 156 33.2357 156 24.7073C156 24.3272 156.448 24.0104 157 24.0002C157.552 23.9901 158 24.2915 158 24.6729C158 33.2243 158 41.7757 158 50.3272C158 50.7086 157.552 51.0099 157 50.9998Z" fill="#FF0032"/>
<path d="M163 45.4999C162.448 45.4953 162 45.1789 162 44.7936C162 39.9313 162 35.0689 162 30.2065C162 29.8213 162.448 29.5049 163 29.5001C163.552 29.4954 164 29.805 164 30.1913C164 35.0637 164 39.9363 164 44.8087C164 45.195 163.552 45.5046 163 45.4999Z" fill="#FF0032"/>
<path d="M169 42C168.448 41.9981 168 41.7007 168 41.336C168 38.7787 168 36.2214 168 33.6641C168 33.2993 168.448 33.002 169 33C169.552 32.9981 170 33.293 170 33.6584C170 36.2194 170 38.7806 170 41.3416C170 41.7071 169.552 42.0019 169 42Z" fill="#FF0032"/>
<path d="M175 45C174.448 44.9982 174 44.6702 174 44.268C174 39.7559 174 35.244 174 30.732C174 30.3297 174.448 30.0018 175 30C175.552 29.9981 176 30.3234 176 30.7261C176 35.242 176 39.7581 176 44.2741C176 44.6766 175.552 45.0018 175 45Z" fill="#FF0032"/>
<path d="M181 45C180.448 44.9994 180 44.6842 180 44.2964C180 39.7654 180 35.2345 180 30.7036C180 30.3158 180.448 30.0007 181 30C181.552 29.9994 182 30.3137 182 30.7017C182 35.2339 182 39.7661 182 44.2985C182 44.6863 181.552 45.0006 181 45Z" fill="#FF0032"/>
<path d="M187 50C186.448 50.001 186 49.6876 186 49.3006C186 41.4336 186 33.5664 186 25.6994C186 25.3124 186.448 24.9991 187 25C187.552 25.0011 188 25.316 188 25.7028C188 33.5675 188 41.4323 188 49.2971C188 49.684 187.552 49.9989 187 50Z" fill="#FF0032"/>
<path d="M193 58.9999C192.448 59.0052 192 58.6962 192 58.3106C192 44.4369 192 30.5631 192 16.6894C192 16.3038 192.448 15.9948 193 16.0001C193.552 16.0053 194 16.3226 194 16.7077C194 30.5693 194 44.4307 194 58.2923C194 58.6774 193.552 58.9946 193 58.9999Z" fill="#FF0032"/>
<path d="M199 44C198.448 44.0027 198 43.6715 198 43.2605C198 39.4202 198 35.5798 198 31.7395C198 31.3285 198.448 30.9973 199 31C199.552 31.0027 200 31.3378 200 31.7479C200 35.5826 200 39.4172 200 43.252C200 43.6622 199.552 43.9973 199 44Z" fill="#FF0032"/>
<path d="M205 44C204.448 44.0038 204 43.6875 204 43.2938C204 39.4312 204 35.5688 204 31.7062C204 31.3125 204.448 30.9962 205 31C205.552 31.0039 206 31.3255 206 31.7183C206 35.5727 206 39.4273 206 43.2817C206 43.6745 205.552 43.9961 205 44Z" fill="#FF0032"/>
<path d="M211 46.9999C210.448 47.0071 210 46.6944 210 46.3018C210 40.4339 210 34.5661 210 28.6982C210 28.3057 210.448 27.9929 211 28.0001C211.552 28.0073 212 28.3306 212 28.7218C212 34.5738 212 40.426 212 46.2781C212 46.6696 211.552 46.9928 211 46.9999Z" fill="#FF0032"/>
<path d="M217 47.9998C216.448 48.0095 216 47.7173 216 47.3474C216 40.7824 216 34.2176 216 27.6526C216 27.2828 216.448 26.9906 217 27.0002C217.552 27.01 218 27.3167 218 27.6852C218 34.2284 218 40.7716 218 47.3147C218 47.6831 217.552 47.9901 217 47.9998Z" fill="#FF0032"/>
<path d="M223 43.9999C222.448 44.0072 222 43.7062 222 43.3282C222 39.4428 222 35.5572 222 31.6718C222 31.2937 222.448 30.9928 223 31.0001C223.552 31.0074 224 31.3186 224 31.6948C224 35.565 224 39.435 224 43.3052C224 43.6814 223.552 43.9926 223 43.9999Z" fill="#FF0032"/>
<path d="M229 50.9993C228.448 51.0167 228 50.7268 228 50.3525C228 41.7841 228 33.2158 228 24.6475C228 24.2731 228.448 23.9833 229 24.0007C229.552 24.0182 230 24.3344 230 24.7068C230 33.2356 230 41.7644 230 50.2932C230 50.6655 229.552 50.9818 229 50.9993Z" fill="#FF0032"/>
<path d="M235 50.999C234.448 51.019 234 50.7311 234 50.3566C234 41.7855 234 33.2144 234 24.6433C234 24.2687 234.448 23.981 235 24.001C235.552 24.021 236 24.3392 236 24.7114C236 33.237 236 41.7628 236 50.2885C236 50.6607 235.552 50.979 235 50.999Z" fill="#FF0032"/>
<path d="M241 42.9998C240.448 43.0091 240 42.7458 240 42.4119C240 39.1373 240 35.8627 240 32.5881C240 32.2542 240.448 31.9909 241 32.0002C241.552 32.0096 242 32.2861 242 32.6176C242 35.8726 242 39.1275 242 42.3825C242 42.7139 241.552 42.9904 241 42.9998Z" fill="#FF0032"/>
<path d="M247 42.9997C246.448 43.0102 246 42.7083 246 42.3256C246 39.1086 246 35.8914 246 32.6744C246 32.2917 246.448 31.9897 247 32.0003C247.552 32.0108 248 32.3273 248 32.7069C248 35.9024 248 39.0976 248 42.2931C248 42.6726 247.553 42.9892 247 42.9997Z" fill="#FF0032"/>
<path d="M253 43.9995C252.448 44.0133 252 43.7292 252 43.3651C252 39.4551 252 35.545 252 31.6349C252 31.2708 252.448 30.9866 253 31.0005C253.552 31.0144 254 31.3182 254 31.6791C254 35.5597 254 39.4403 254 43.321C254 43.6818 253.552 43.9857 253 43.9995Z" fill="#FF0032"/>
<path d="M259 42.9995C258.448 43.0126 258 42.7518 258 42.4175C258 39.1391 258 35.8609 258 32.5825C258 32.2481 258.448 31.9874 259 32.0005C259.553 32.0135 260 32.2927 260 32.6236C260 35.8746 260 39.1255 260 42.3764C260 42.7075 259.553 42.9866 259 42.9995Z" fill="#FF0032"/>
<path d="M265 41.9996C264.448 42.0113 264 41.7666 264 41.453C264 38.8177 264 36.1823 264 33.5469C264 33.2333 264.448 32.9886 265 33.0004C265.552 33.0122 266 33.2734 266 33.5836C266 36.1945 266 38.8055 266 41.4164C266 41.7266 265.552 41.9877 265 41.9996Z" fill="#FF0032"/>
<path d="M271 41.9995C270.448 42.0127 270 41.7413 270 41.3938C270 38.798 270 36.2021 270 33.6062C270 33.2586 270.448 32.9873 271 33.0005C271.553 33.0136 272 33.3027 272 33.6459C272 36.2152 272 38.7846 272 41.3541C272 41.6973 271.553 41.9864 271 41.9995Z" fill="#FF0032"/>
<path d="M277 52.9933C276.448 53.0419 276 52.8215 276 52.5017C276 42.5007 276 32.4995 276 22.4983C276 22.1785 276.448 21.9581 277 22.0067C277.552 22.0553 278 22.3511 278 22.6665C278 32.5554 278 42.4444 278 52.3333C278 52.6488 277.553 52.9446 277 52.9933Z" fill="#FF0032"/>
<path d="M283 47.996C282.448 48.0323 282 47.8195 282 47.5214C282 40.8404 282 34.1596 282 27.4786C282 27.1805 282.448 26.9677 283 27.004C283.553 27.0403 284 27.3083 284 27.6022C284 34.2008 284 40.7992 284 47.3978C284 47.6916 283.552 47.9597 283 47.996Z" fill="#FF0032"/>
<path d="M289 43.9982C288.448 44.023 288 43.7868 288 43.471C288 39.4903 288 35.5097 288 31.529C288 31.213 288.448 30.977 289 31.0018C289.552 31.0266 290 31.299 290 31.6098C290 35.5366 290 39.4635 290 43.3903C290 43.701 289.553 43.9734 289 43.9982Z" fill="#FF0032"/>
<path d="M295 40.9993C294.448 41.0142 294 40.7939 294 40.5074C294 38.5024 294 36.4975 294 34.4925C294 34.2061 294.448 33.9858 295 34.0007C295.552 34.0155 296 34.256 296 34.5373C296 36.5124 296 38.4876 296 40.4627C296 40.744 295.553 40.9844 295 40.9993Z" fill="#FF0032"/>
<path d="M301 42.4982C300.448 42.5214 300 42.3203 300 42.0495C300 39.0164 300 35.9836 300 32.9505C300 32.6797 300.448 32.4786 301 32.5018C301.553 32.525 302 32.7593 302 33.0249C302 36.0083 302 38.9918 302 41.9752C302 42.2406 301.553 42.475 301 42.4982Z" fill="#FF0032"/>
<path d="M307 42.4977C306.448 42.5232 306 42.3318 306 42.0705C306 39.0235 306 35.9765 306 32.9295C306 32.6682 306.448 32.4769 307 32.5023C307.552 32.5278 308 32.7559 308 33.0116C308 36.0038 308 38.9961 308 41.9883C308 42.2441 307.553 42.4721 307 42.4977Z" fill="#FF0032"/>
<path d="M313 52.9933C312.448 53.0419 312 52.8215 312 52.5017C312 42.5007 312 32.4995 312 22.4983C312 22.1785 312.448 21.9581 313 22.0067C313.552 22.0553 314 22.3511 314 22.6665C314 32.5554 314 42.4444 314 52.3333C314 52.6488 313.553 52.9446 313 52.9933Z" fill="#FF0032"/>
<path d="M319 47.996C318.448 48.0323 318 47.8195 318 47.5214C318 40.8404 318 34.1596 318 27.4786C318 27.1805 318.448 26.9677 319 27.004C319.553 27.0403 320 27.3083 320 27.6022C320 34.2008 320 40.7992 320 47.3978C320 47.6916 319.552 47.9597 319 47.996Z" fill="#FF0032"/>
<path d="M325 43.9982C324.448 44.023 324 43.7868 324 43.471C324 39.4903 324 35.5097 324 31.529C324 31.213 324.448 30.977 325 31.0018C325.552 31.0266 326 31.299 326 31.6098C326 35.5366 326 39.4635 326 43.3903C326 43.701 325.553 43.9734 325 43.9982Z" fill="#FF0032"/>
<path d="M331 40.9993C330.448 41.0142 330 40.7939 330 40.5074C330 38.5024 330 36.4975 330 34.4925C330 34.2061 330.448 33.9858 331 34.0007C331.552 34.0155 332 34.256 332 34.5373C332 36.5124 332 38.4876 332 40.4627C332 40.744 331.553 40.9844 331 40.9993Z" fill="#FF0032"/>
<path d="M337 42.4982C336.448 42.5214 336 42.3203 336 42.0495C336 39.0164 336 35.9836 336 32.9505C336 32.6797 336.448 32.4786 337 32.5018C337.553 32.525 338 32.7593 338 33.0249C338 36.0083 338 38.9918 338 41.9752C338 42.2406 337.553 42.475 337 42.4982Z" fill="#FF0032"/>
<path d="M343 42.4977C342.448 42.5232 342 42.3318 342 42.0705C342 39.0235 342 35.9765 342 32.9295C342 32.6682 342.448 32.4769 343 32.5023C343.552 32.5278 344 32.7559 344 33.0116C344 36.0038 344 38.9961 344 41.9883C344 42.2441 343.553 42.4721 343 42.4977Z" fill="#FF0032"/>
</svg>
