<svg width="315" height="44" viewBox="0 0 315 44" fill="none" xmlns="http://www.w3.org/2000/svg">
<rect x="0.5" width="314" height="44" rx="16" fill="#F2F3F7"/>
<path d="M17.4999 26.9987C16.9475 26.9813 16.5 26.8011 16.5 26.5964C16.5 23.5321 16.5 20.4679 16.5 17.4036C16.5 17.1989 16.9475 17.0187 17.4999 17.0013C18.0522 16.984 18.5 17.1385 18.5 17.3462C18.5 20.4487 18.5 23.5513 18.5 26.6538C18.5 26.8615 18.0522 27.016 17.4999 26.9987Z" fill="#FF0032"/>
<path d="M22.9999 25.9995C22.7237 25.988 22.5 25.7914 22.5 25.5607C22.5 23.1869 22.5 20.8131 22.5 18.4393C22.5 18.2086 22.7238 18.0121 22.9999 18.0005C23.276 17.989 23.5 18.169 23.5 18.4026C23.5 20.8008 23.5 23.1991 23.5 25.5974C23.4999 25.8309 23.2759 26.0111 22.9999 25.9995Z" fill="#FF0032"/>
<path d="M27.9999 32.9886C27.7237 32.9383 27.5 32.739 27.5 32.544C27.5 25.5147 27.5 18.4853 27.5 11.456C27.5 11.2609 27.7237 11.0617 27.9999 11.0114C28.276 10.9611 28.5 11.082 28.5 11.2809C28.5 18.427 28.5 25.573 28.5 32.7192C28.5 32.918 28.276 33.0389 27.9999 32.9886Z" fill="#FF0032"/>
<path d="M32.9999 32.9886C32.7237 32.9383 32.5 32.739 32.5 32.544C32.5 25.5147 32.5 18.4853 32.5 11.456C32.5 11.2609 32.7237 11.0617 32.9999 11.0114C33.276 10.9611 33.5 11.082 33.5 11.2809C33.5 18.427 33.5 25.573 33.5 32.7192C33.5 32.918 33.276 33.0389 32.9999 32.9886Z" fill="#FF0032"/>
<path d="M38.4998 24.9992C37.9473 24.9866 37.5 24.824 37.5 24.6361C37.5 22.8787 37.5 21.1213 37.5 19.3639C37.5 19.1761 37.9476 19.0135 38.4998 19.0008C39.0519 18.9881 39.5 19.1329 39.5 19.3241C39.5 21.108 39.5 22.892 39.5 24.6759C39.5 24.8671 39.0522 25.0119 38.4998 24.9992Z" fill="#FF0032"/>
<path d="M44.4998 27.9955C43.9476 27.9652 43.5 27.7915 43.5 27.6079C43.5 23.8693 43.5 20.1307 43.5 16.3921C43.5 16.2085 43.9474 16.0348 44.4998 16.0045C45.0521 15.9741 45.5003 16.1018 45.5 16.2894C45.5 20.0965 45.5 23.9036 45.5 27.7106C45.5003 27.8981 45.0523 28.0259 44.4998 27.9955Z" fill="#FF0032"/>
<path d="M49.9999 32.9886C49.7237 32.9383 49.5 32.739 49.5 32.544C49.5 25.5147 49.5 18.4853 49.5 11.456C49.5 11.2609 49.7237 11.0617 49.9999 11.0114C50.276 10.9611 50.5 11.082 50.5 11.2809C50.5 18.427 50.5 25.573 50.5 32.7192C50.5 32.918 50.276 33.0389 49.9999 32.9886Z" fill="#FF0032"/>
<path d="M54.9999 24.9992C54.7237 24.9866 54.5 24.824 54.5 24.6361C54.5 22.8787 54.5 21.1213 54.5 19.3639C54.5 19.1761 54.7238 19.0135 54.9999 19.0008C55.2759 18.9881 55.5 19.1329 55.5 19.3241C55.5 21.108 55.5 22.892 55.5 24.6759C55.5 24.8671 55.2761 25.0119 54.9999 24.9992Z" fill="#FF0032"/>
<path d="M59.9999 24.9993C59.7237 24.9878 59.5 24.8325 59.5 24.6525C59.5 22.8842 59.5 21.1158 59.5 19.3475C59.5 19.1676 59.7237 19.0122 59.9999 19.0007C60.276 18.9892 60.5 19.1282 60.5 19.3111C60.5 21.1037 60.5 22.8963 60.5 24.6889C60.4999 24.8717 60.2759 25.0108 59.9999 24.9993Z" fill="#FF0032"/>
<path d="M65.4999 26.9987C64.9475 26.9813 64.5 26.8011 64.5 26.5964C64.5 23.5321 64.5 20.4679 64.5 17.4036C64.5 17.1989 64.9475 17.0187 65.4999 17.0013C66.0522 16.984 66.5 17.1385 66.5 17.3462C66.5 20.4487 66.5 23.5513 66.5 26.6538C66.5 26.8615 66.0522 27.016 65.4999 26.9987Z" fill="#FF0032"/>
<path d="M71.4997 27.9985C70.9476 27.9795 70.5 27.7942 70.5 27.5847C70.5 23.8616 70.5 20.1384 70.5 16.4153C70.5 16.2059 70.9476 16.0205 71.4997 16.0015C72.0519 15.9826 72.5 16.1396 72.5 16.3519C72.5 20.1172 72.5 23.8827 72.5 27.6481C72.4997 27.8604 72.0519 28.0174 71.4997 27.9985Z" fill="#FF0032"/>
<path d="M76.9999 25.9995C76.7237 25.988 76.5 25.7914 76.5 25.5607C76.5 23.1869 76.5 20.8131 76.5 18.4393C76.5 18.2086 76.7238 18.0121 76.9999 18.0005C77.276 17.989 77.5 18.169 77.5 18.4026C77.5 20.8008 77.5 23.1991 77.5 25.5974C77.4999 25.8309 77.2759 26.0111 76.9999 25.9995Z" fill="#FF0032"/>
<path d="M81.9999 29.9982C81.7238 29.9775 81.5 29.7821 81.5 29.5621C81.5 24.5207 81.5 19.4793 81.5 14.4379C81.5 14.2179 81.7238 14.0225 81.9999 14.0018C82.2761 13.981 82.5 14.1448 82.5 14.3673C82.5 19.4558 82.5 24.5443 82.5 29.6329C82.5 29.8552 82.2761 30.0189 81.9999 29.9982Z" fill="#FF0032"/>
<path d="M86.9999 30.9984C86.7238 30.9773 86.5 30.7591 86.5 30.5115C86.5 24.8371 86.5 19.1629 86.5 13.4885C86.5 13.2408 86.7238 13.0228 86.9999 13.0016C87.2761 12.9806 87.5 13.1665 87.5 13.4166C87.5 19.1389 87.5 24.8611 87.5 30.5833C87.5 30.8334 87.2761 31.0195 86.9999 30.9984Z" fill="#FF0032"/>
<path d="M91.9999 25.9997C91.7238 25.9913 91.5 25.7888 91.5 25.548C91.5 23.1826 91.5 20.8174 91.5 18.452C91.5 18.2112 91.7238 18.0088 91.9999 18.0003C92.276 17.9917 92.5 18.182 92.5 18.4251C92.5 20.8083 92.5 23.1917 92.5 25.5749C92.5001 25.818 92.276 26.0083 91.9999 25.9997Z" fill="#FF0032"/>
<path d="M97.4999 25.9998C96.9477 25.9921 96.5 25.7619 96.5 25.4859C96.5 23.1619 96.5 20.8381 96.5 18.5141C96.5 18.238 96.9477 18.0078 97.4999 18.0002C98.052 17.9925 98.5 18.2121 98.5 18.4904C98.5 20.8301 98.5 23.1699 98.5 25.5095C98.5 25.7879 98.052 26.0075 97.4999 25.9998Z" fill="#FF0032"/>
<path d="M103.5 26.9998C102.948 26.9913 102.5 26.759 102.5 26.4812C102.5 23.4937 102.5 20.5063 102.5 17.5188C102.5 17.241 102.948 17.0087 103.5 17.0002C104.052 16.9917 104.5 17.2119 104.5 17.4917C104.5 20.4972 104.5 23.5027 104.5 26.5082C104.5 26.7881 104.052 27.0083 103.5 26.9998Z" fill="#FF0032"/>
<path d="M109 25.9999C108.724 25.9938 108.5 25.7934 108.5 25.5521C108.5 23.1841 108.5 20.8159 108.5 18.4479C108.5 18.2067 108.724 18.0062 109 18.0001C109.276 17.9942 109.5 18.1862 109.5 18.4289C109.5 20.8096 109.5 23.1903 109.5 25.5711C109.5 25.8137 109.276 26.0058 109 25.9999Z" fill="#FF0032"/>
<path d="M114 25.9999C113.724 25.9947 113.5 25.7662 113.5 25.4897C113.5 23.1632 113.5 20.8368 113.5 18.5103C113.5 18.2338 113.724 18.0053 114 18.0001C114.276 17.9949 114.5 18.2162 114.5 18.4941C114.5 20.8314 114.5 23.1686 114.5 25.5059C114.5 25.7839 114.276 26.0052 114 25.9999Z" fill="#FF0032"/>
<path d="M119 25C118.724 24.9966 118.5 24.8075 118.5 24.5777C118.5 22.8592 118.5 21.1407 118.5 19.4223C118.5 19.1925 118.724 19.0034 119 19C119.276 18.9967 119.5 19.1812 119.5 19.4121C119.5 21.1374 119.5 22.8627 119.5 24.588C119.5 24.8188 119.276 25.0033 119 25Z" fill="#FF0032"/>
<path d="M124.5 34.9995C123.948 34.9875 123.5 34.7618 123.5 34.4958C123.5 26.1653 123.5 17.8347 123.5 9.50419C123.5 9.23825 123.948 9.01249 124.5 9.0005C125.052 8.9885 125.5 9.19568 125.5 9.46269C125.5 17.8209 125.5 26.1791 125.5 34.5373C125.5 34.8043 125.052 35.0114 124.5 34.9995Z" fill="#FF0032"/>
<path d="M130.5 30.9998C129.948 30.9931 129.5 30.7819 129.5 30.5285C129.5 24.8428 129.5 19.1572 129.5 13.4715C129.5 13.2182 129.948 13.0069 130.5 13.0002C131.052 12.9934 131.5 13.1943 131.5 13.4486C131.5 19.1495 131.5 24.8505 131.5 30.5514C131.5 30.8058 131.052 31.0066 130.5 30.9998Z" fill="#FF0032"/>
<path d="M136 28C135.724 27.9964 135.5 27.7591 135.5 27.4702C135.5 23.8234 135.5 20.1767 135.5 16.5299C135.5 16.241 135.724 16.0036 136 16C136.276 15.9965 136.5 16.2287 136.5 16.5184C136.5 20.1728 136.5 23.8272 136.5 27.4816C136.5 27.7713 136.276 28.0035 136 28Z" fill="#FF0032"/>
<path d="M141 25C140.724 24.9987 140.5 24.8004 140.5 24.5573C140.5 22.8525 140.5 21.1476 140.5 19.4428C140.5 19.1996 140.724 19.0013 141 19C141.276 18.9988 141.5 19.1954 141.5 19.4389C141.5 21.1463 141.5 22.8537 141.5 24.5611C141.5 24.8047 141.276 25.0012 141 25Z" fill="#FF0032"/>
<path d="M146 27C145.724 26.9988 145.5 26.7801 145.5 26.512C145.5 23.5039 145.5 20.496 145.5 17.488C145.5 17.2198 145.724 17.0012 146 17C146.276 16.9987 146.5 17.2156 146.5 17.484C146.5 20.4947 146.5 23.5054 146.5 26.516C146.5 26.7844 146.276 27.0012 146 27Z" fill="#FF0032"/>
<path d="M151.5 27C150.948 26.9996 150.5 26.7895 150.5 26.5309C150.5 23.5103 150.5 20.4896 150.5 17.4691C150.5 17.2105 150.948 17.0005 151.5 17C152.052 16.9996 152.5 17.2091 152.5 17.4678C152.5 20.4893 152.5 23.5107 152.5 26.5323C152.5 26.7909 152.052 27.0004 151.5 27Z" fill="#FF0032"/>
<path d="M157.5 31C156.948 31.0008 156.5 30.7751 156.5 30.4965C156.5 24.8322 156.5 19.1678 156.5 13.5035C156.5 13.2249 156.948 12.9993 157.5 13C158.052 13.0008 158.5 13.2275 158.5 13.506C158.5 19.1686 158.5 24.8313 158.5 30.4939C158.5 30.7725 158.052 30.9992 157.5 31Z" fill="#FF0032"/>
<path d="M163.5 37C162.948 37.0036 162.5 36.7881 162.5 36.519C162.5 26.8397 162.5 17.1603 162.5 7.48096C162.5 7.21193 162.948 6.9964 163.5 7.00005C164.052 7.00369 164.5 7.22507 164.5 7.49377C164.5 17.1646 164.5 26.8354 164.5 36.5062C164.5 36.7749 164.052 36.9962 163.5 37Z" fill="#FF0032"/>
<path d="M169 27C168.724 27.0021 168.5 26.7473 168.5 26.4312C168.5 23.4771 168.5 20.5229 168.5 17.5688C168.5 17.2527 168.724 16.9979 169 17C169.276 17.0021 169.5 17.2598 169.5 17.5753C169.5 20.5251 169.5 23.4748 169.5 26.4246C169.5 26.7402 169.276 26.9979 169 27Z" fill="#FF0032"/>
<path d="M174 27C173.724 27.0029 173.5 26.7596 173.5 26.4568C173.5 23.4856 173.5 20.5144 173.5 17.5432C173.5 17.2404 173.724 16.9971 174 17C174.276 17.003 174.5 17.2504 174.5 17.5525C174.5 20.5175 174.5 23.4825 174.5 26.4475C174.5 26.7496 174.276 26.997 174 27Z" fill="#FF0032"/>
<path d="M179 28.9999C178.724 29.0052 178.5 28.7748 178.5 28.4856C178.5 24.1619 178.5 19.8382 178.5 15.5145C178.5 15.2252 178.724 14.9948 179 15.0001C179.276 15.0054 179.5 15.2436 179.5 15.5318C179.5 19.8439 179.5 24.156 179.5 28.4681C179.5 28.7565 179.276 28.9947 179 28.9999Z" fill="#FF0032"/>
<path d="M184.5 28.9998C183.948 29.0064 183.5 28.8115 183.5 28.5649C183.5 24.1883 183.5 19.8117 183.5 15.4351C183.5 15.1886 183.948 14.9937 184.5 15.0002C185.052 15.0067 185.5 15.2112 185.5 15.4568C185.5 19.8189 185.5 24.1811 185.5 28.5432C185.5 28.7888 185.052 28.9934 184.5 28.9998Z" fill="#FF0032"/>
<path d="M190.5 26.9999C189.948 27.0055 189.5 26.774 189.5 26.4832C189.5 23.4944 189.5 20.5056 189.5 17.5168C189.5 17.2259 189.948 16.9945 190.5 17.0001C191.052 17.0057 191.5 17.2451 191.5 17.5345C191.5 20.5115 191.5 23.4885 191.5 26.4655C191.5 26.7549 191.052 26.9943 190.5 26.9999Z" fill="#FF0032"/>
<path d="M196 30.9995C195.724 31.0111 195.5 30.8179 195.5 30.5683C195.5 24.8561 195.5 19.1439 195.5 13.4317C195.5 13.1821 195.724 12.9889 196 13.0005C196.276 13.0121 196.5 13.223 196.5 13.4712C196.5 19.1571 196.5 24.8429 196.5 30.5288C196.5 30.777 196.276 30.9879 196 30.9995Z" fill="#FF0032"/>
<path d="M201 30.9993C200.724 31.0127 200.5 30.8208 200.5 30.5711C200.5 24.857 200.5 19.1429 200.5 13.4289C200.5 13.1792 200.724 12.9873 201 13.0007C201.276 13.014 201.5 13.2261 201.5 13.4742C201.5 19.158 201.5 24.8419 201.5 30.5257C201.5 30.7738 201.276 30.986 201 30.9993Z" fill="#FF0032"/>
<path d="M206 25.9998C205.724 26.0066 205.5 25.8151 205.5 25.5723C205.5 23.1908 205.5 20.8092 205.5 18.4277C205.5 18.1849 205.724 17.9934 206 18.0002C206.276 18.007 206.5 18.2081 206.5 18.4492C206.5 20.8164 206.5 23.1836 206.5 25.5509C206.5 25.7919 206.276 25.993 206 25.9998Z" fill="#FF0032"/>
<path d="M211.5 25.9998C210.948 26.0074 210.5 25.7879 210.5 25.5095C210.5 23.1699 210.5 20.8301 210.5 18.4904C210.5 18.2121 210.948 17.9925 211.5 18.0002C212.052 18.0079 212.5 18.238 212.5 18.5141C212.5 20.8381 212.5 23.1619 212.5 25.4859C212.5 25.7619 212.053 25.9921 211.5 25.9998Z" fill="#FF0032"/>
<path d="M217.5 26.9996C216.948 27.0102 216.5 26.7917 216.5 26.5117C216.5 23.5039 216.5 20.4961 216.5 17.4884C216.5 17.2083 216.948 16.9897 217.5 17.0004C218.052 17.0111 218.5 17.2448 218.5 17.5224C218.5 20.5075 218.5 23.4925 218.5 26.4777C218.5 26.7552 218.052 26.989 217.5 26.9996Z" fill="#FF0032"/>
<path d="M223 25.9997C222.724 26.0091 222.5 25.8195 222.5 25.5764C222.5 23.1921 222.5 20.8079 222.5 18.4236C222.5 18.1804 222.724 17.9909 223 18.0003C223.276 18.0098 223.5 18.2128 223.5 18.4535C223.5 20.8179 223.5 23.1822 223.5 25.5465C223.5 25.7872 223.276 25.9903 223 25.9997Z" fill="#FF0032"/>
<path d="M228 24.9997C227.724 25.0076 227.5 24.8444 227.5 24.6353C227.5 22.8785 227.5 21.1215 227.5 19.3646C227.5 19.1555 227.724 18.9924 228 19.0003C228.276 19.0081 228.5 19.1823 228.5 19.3891C228.5 21.1297 228.5 22.8703 228.5 24.6109C228.5 24.8177 228.276 24.9918 228 24.9997Z" fill="#FF0032"/>
<path d="M233 24.9997C232.724 25.0084 232.5 24.8275 232.5 24.5959C232.5 22.8653 232.5 21.1348 232.5 19.4041C232.5 19.1724 232.724 18.9916 233 19.0003C233.276 19.009 233.5 19.2018 233.5 19.4306C233.5 21.1435 233.5 22.8564 233.5 24.5694C233.5 24.7982 233.276 24.991 233 24.9997Z" fill="#FF0032"/>
<path d="M238 32.9952C237.724 33.0297 237.5 32.8733 237.5 32.6464C237.5 25.5489 237.5 18.4512 237.5 11.3536C237.5 11.1267 237.724 10.9703 238 11.0048C238.276 11.0393 238.5 11.2491 238.5 11.473C238.5 18.4909 238.5 25.5089 238.5 32.5268C238.5 32.7508 238.276 32.9607 238 32.9952Z" fill="#FF0032"/>
<path d="M243.5 28.9973C242.948 29.0215 242.5 28.8797 242.5 28.6809C242.5 24.2269 242.5 19.7731 242.5 15.3191C242.5 15.1203 242.948 14.9785 243.5 15.0027C244.053 15.0269 244.5 15.2055 244.5 15.4015C244.5 19.8005 244.5 24.1995 244.5 28.5985C244.5 28.7944 244.052 28.9731 243.5 28.9973Z" fill="#FF0032"/>
<path d="M249.5 26.9986C248.948 27.0177 248.5 26.836 248.5 26.5931C248.5 23.531 248.5 20.469 248.5 17.4069C248.5 17.1639 248.948 16.9823 249.5 17.0014C250.052 17.0205 250.5 17.23 250.5 17.4691C250.5 20.4897 250.5 23.5104 250.5 26.531C250.5 26.77 250.053 26.9795 249.5 26.9986Z" fill="#FF0032"/>
<path d="M255 23.9996C254.724 24.0081 254.5 23.8822 254.5 23.7185C254.5 22.5728 254.5 21.4271 254.5 20.2814C254.5 20.1178 254.724 19.9919 255 20.0004C255.276 20.0089 255.5 20.1463 255.5 20.307C255.5 21.4357 255.5 22.5643 255.5 23.693C255.5 23.8537 255.276 23.9911 255 23.9996Z" fill="#FF0032"/>
<path d="M260 24.9989C259.724 25.0128 259.5 24.8922 259.5 24.7297C259.5 22.9099 259.5 21.0901 259.5 19.2703C259.5 19.1078 259.724 18.9872 260 19.0011C260.276 19.015 260.5 19.1556 260.5 19.3149C260.5 21.105 260.5 22.8951 260.5 24.6851C260.5 24.8444 260.276 24.985 260 24.9989Z" fill="#FF0032"/>
<path d="M265 24.9986C264.724 25.0139 264.5 24.8991 264.5 24.7423C264.5 22.9141 264.5 21.0859 264.5 19.2577C264.5 19.1009 264.724 18.9861 265 19.0014C265.276 19.0167 265.5 19.1536 265.5 19.307C265.5 21.1023 265.5 22.8977 265.5 24.693C265.5 24.8464 265.276 24.9833 265 24.9986Z" fill="#FF0032"/>
<path d="M270.5 32.9952C269.948 33.0297 269.5 32.8733 269.5 32.6464C269.5 25.5489 269.5 18.4512 269.5 11.3536C269.5 11.1267 269.948 10.9703 270.5 11.0048C271.052 11.0393 271.5 11.2491 271.5 11.473C271.5 18.4909 271.5 25.5089 271.5 32.5268C271.5 32.7508 271.053 32.9607 270.5 32.9952Z" fill="#FF0032"/>
<path d="M276.5 28.9973C275.948 29.0215 275.5 28.8797 275.5 28.6809C275.5 24.2269 275.5 19.7731 275.5 15.3191C275.5 15.1203 275.948 14.9785 276.5 15.0027C277.053 15.0269 277.5 15.2055 277.5 15.4015C277.5 19.8005 277.5 24.1995 277.5 28.5985C277.5 28.7944 277.052 28.9731 276.5 28.9973Z" fill="#FF0032"/>
<path d="M282 26.9986C281.724 27.0177 281.5 26.836 281.5 26.5931C281.5 23.531 281.5 20.469 281.5 17.4069C281.5 17.1639 281.724 16.9823 282 17.0014C282.276 17.0205 282.5 17.23 282.5 17.4691C282.5 20.4897 282.5 23.5104 282.5 26.531C282.5 26.77 282.276 26.9795 282 26.9986Z" fill="#FF0032"/>
<path d="M287 23.9996C286.724 24.0081 286.5 23.8822 286.5 23.7185C286.5 22.5728 286.5 21.4271 286.5 20.2814C286.5 20.1178 286.724 19.9919 287 20.0004C287.276 20.0089 287.5 20.1463 287.5 20.307C287.5 21.4357 287.5 22.5643 287.5 23.693C287.5 23.8537 287.276 23.9911 287 23.9996Z" fill="#FF0032"/>
<path d="M292 24.9989C291.724 25.0128 291.5 24.8922 291.5 24.7297C291.5 22.9099 291.5 21.0901 291.5 19.2703C291.5 19.1078 291.724 18.9872 292 19.0011C292.276 19.015 292.5 19.1556 292.5 19.3149C292.5 21.105 292.5 22.8951 292.5 24.6851C292.5 24.8444 292.276 24.985 292 24.9989Z" fill="#FF0032"/>
<path d="M297.5 24.9986C296.948 25.0139 296.5 24.8991 296.5 24.7423C296.5 22.9141 296.5 21.0859 296.5 19.2577C296.5 19.1009 296.948 18.9861 297.5 19.0014C298.052 19.0167 298.5 19.1536 298.5 19.307C298.5 21.1023 298.5 22.8977 298.5 24.693C298.5 24.8464 298.053 24.9833 297.5 24.9986Z" fill="#FF0032"/>
</svg>
