<svg width="472" height="198" viewBox="0 0 472 198" fill="none" xmlns="http://www.w3.org/2000/svg">
<g clip-path="url(#clip0_306_5029)">
<rect x="0.125" y="15.5699" width="96.7539" height="130" rx="20" transform="rotate(-9.24381 0.125 15.5699)" fill="#F2F3F7"/>
<rect x="11.6016" y="23.8337" width="76.7539" height="87.9382" rx="10" transform="rotate(-9.24381 11.6016 23.8337)" fill="white"/>
<rect x="27.665" y="122.535" width="62.2381" height="10" rx="5" transform="rotate(-9.24381 27.665 122.535)" fill="white"/>
</g>
<g clip-path="url(#clip1_306_5029)">
<rect x="146.024" y="46.0403" width="96.7539" height="130" rx="20" transform="rotate(15 146.024 46.0403)" fill="#F2F3F7"/>
<rect x="153.095" y="58.2877" width="76.7539" height="87.9382" rx="10" transform="rotate(15 153.095 58.2877)" fill="white"/>
<rect x="127.213" y="154.88" width="62.2381" height="10" rx="5" transform="rotate(15 127.213 154.88)" fill="white"/>
</g>
<rect x="282" y="0.999634" width="190" height="197" rx="20" fill="#F2F3F7"/>
<line x1="378" y1="0.999634" x2="378" y2="198" stroke="white" stroke-width="2"/>
<rect x="292" y="10.9996" width="75" height="10" rx="5" fill="white"/>
<rect x="387" y="10.9996" width="75" height="10" rx="5" fill="white"/>
<path d="M227.505 143.775C228.122 143.535 228.431 143.415 228.517 143.246C228.592 143.099 228.59 142.924 228.511 142.779C228.42 142.612 228.109 142.5 227.486 142.277L211.596 136.573C211.086 136.39 210.832 136.298 210.665 136.356C210.52 136.406 210.406 136.52 210.356 136.665C210.298 136.831 210.39 137.086 210.573 137.596L216.277 153.486C216.5 154.109 216.612 154.42 216.779 154.511C216.924 154.59 217.099 154.592 217.246 154.517C217.415 154.431 217.535 154.122 217.775 153.505L220.372 146.828C220.419 146.707 220.443 146.646 220.479 146.596C220.511 146.55 220.551 146.511 220.596 146.479C220.647 146.443 220.707 146.419 220.828 146.372L227.505 143.775Z" fill="#FF0032"/>
<defs>
<clipPath id="clip0_306_5029">
<rect x="0.125" y="15.5699" width="96.7539" height="130" rx="20" transform="rotate(-9.24381 0.125 15.5699)" fill="white"/>
</clipPath>
<clipPath id="clip1_306_5029">
<rect x="146.024" y="46.0403" width="96.7539" height="130" rx="20" transform="rotate(15 146.024 46.0403)" fill="white"/>
</clipPath>
</defs>
</svg>
